<?xml version="1.0" encoding="iso-8859-1"?>
<!-- Generator: Adobe Illustrator 16.0.0, SVG Export Plug-In . SVG Version: 6.00 Build 0)  -->
<!DOCTYPE svg PUBLIC "-//W3C//DTD SVG 1.1//EN" "http://www.w3.org/Graphics/SVG/1.1/DTD/svg11.dtd">
<svg version="1.1" id="Capa_1" xmlns="http://www.w3.org/2000/svg" xmlns:xlink="http://www.w3.org/1999/xlink" x="0px" y="0px"
	 width="45.261px" height="45.261px" viewBox="0 0 45.261 45.261" style="enable-background:new 0 0 45.261 45.261;"
	 xml:space="preserve">
<g>
	<g>
		<circle cx="33.377" cy="4.49" r="4.49"/>
		<path d="M43.302,25.277l-4.056-13.065c-0.372-1.199-1.29-2.187-2.494-2.54c-1.294-0.38-2.016,0.181-2.693,0.721
			c-0.096,0.077-8.707,7.411-8.707,7.411L12.378,2.407c-0.357-0.423-0.99-0.478-1.413-0.12c-0.423,0.357-0.477,0.989-0.12,1.413
			l0.701,0.833L6.878,9.202c-0.239,0.238-0.315,0.595-0.194,0.91l0.512,1.343c0.198,0.519,0.848,0.689,1.275,0.334l5.402-4.495
			L23.91,19.205c-0.544,0.9-0.481,2.083,0.24,2.926c0.496,0.58,1.198,0.876,1.905,0.876c0.31,0,0.619-0.058,0.913-0.173l1.15,1.366
			c0.199,0.234,0.482,0.355,0.768,0.355c0.229,0,0.458-0.076,0.646-0.235c0.423-0.356,0.477-0.99,0.119-1.413l-1.07-1.271
			l5.755-4.923l3.05,9.84v15.566c0,1.457,0.979,2.796,2.407,3.079c1.926,0.381,3.633-1.085,3.633-2.946V26.098
			C43.426,25.82,43.384,25.543,43.302,25.277z"/>
		<path d="M20.318,39.52c-0.312,0-0.597,0.013-0.922,0.037v-0.733c0.13,0.058,0.276,0.117,0.487,0.176
			c0.65,0.183,1.557,0.3,1.602,0.142c0.036-0.129-0.499-0.396-1.049-0.592c0.088-0.033,0.182-0.072,0.281-0.117
			c1.066-0.467,2.398-1.303,2.284-1.562c-0.101-0.23-1.312,0.07-2.328,0.469c0.042-0.065,0.083-0.136,0.127-0.209
			c0.81-1.367,1.622-3.354,1.288-3.552c-0.286-0.169-1.317,1.027-2.117,2.233c-0.031-1.915-0.404-4.305-0.859-4.305
			s-0.828,2.39-0.859,4.305c-0.799-1.206-1.831-2.403-2.117-2.233c-0.333,0.197,0.479,2.185,1.289,3.552
			c0.043,0.073,0.085,0.144,0.126,0.209c-1.017-0.397-2.227-0.699-2.329-0.469c-0.114,0.26,1.218,1.096,2.285,1.562
			c0.099,0.043,0.192,0.084,0.281,0.117c-0.55,0.195-1.086,0.463-1.05,0.592c0.044,0.158,0.944,0.041,1.595-0.142
			c0.21-0.059,0.349-0.118,0.479-0.176v0.798c-1.494,0.205-2.756,0.711-3.603,1.413c-1.23-1.239-3.536-2.044-6.206-2.044
			c-0.181,0-0.389,0.004-0.519,0.014v-1.24c0.13,0.074,0.332,0.149,0.6,0.226c0.829,0.233,1.974,0.381,2.03,0.179
			c0.046-0.162-0.641-0.505-1.342-0.753c0.112-0.044,0.229-0.093,0.355-0.149c1.359-0.596,3.055-1.659,2.91-1.991
			c-0.129-0.294-1.672,0.089-2.968,0.597c0.053-0.084,0.106-0.173,0.161-0.266c1.032-1.743,2.066-4.275,1.642-4.527
			c-0.364-0.215-1.679,1.311-2.697,2.846C9.135,31.484,8.66,28.44,8.08,28.44c-0.581,0-1.055,3.043-1.095,5.483
			c-1.019-1.537-2.333-3.062-2.697-2.846c-0.425,0.251,0.609,2.784,1.642,4.527c0.055,0.093,0.108,0.181,0.161,0.266
			c-1.295-0.508-2.838-0.892-2.967-0.597c-0.146,0.332,1.552,1.396,2.911,1.991c0.127,0.057,0.246,0.105,0.358,0.149
			c-0.701,0.248-1.384,0.591-1.338,0.753c0.057,0.202,1.207,0.055,2.036-0.179c0.268-0.076,0.483-0.151,0.613-0.226v1.301
			c-3.311,0.391-5.87,2.262-5.87,4.053c0,2.014,24.695,2.014,24.695,0C26.529,41.104,23.747,39.52,20.318,39.52z"/>
	</g>
</g>
<g>
</g>
<g>
</g>
<g>
</g>
<g>
</g>
<g>
</g>
<g>
</g>
<g>
</g>
<g>
</g>
<g>
</g>
<g>
</g>
<g>
</g>
<g>
</g>
<g>
</g>
<g>
</g>
<g>
</g>
</svg>
