<?xml version="1.0" encoding="utf-8"?>
<!-- Generator: Adobe Illustrator 16.0.0, SVG Export Plug-In . SVG Version: 6.00 Build 0)  -->
<!DOCTYPE svg PUBLIC "-//W3C//DTD SVG 1.1//EN" "http://www.w3.org/Graphics/SVG/1.1/DTD/svg11.dtd">
<svg version="1.1" id="Layer_1" xmlns="http://www.w3.org/2000/svg" xmlns:xlink="http://www.w3.org/1999/xlink" x="0px" y="0px"
	 width="100px" height="100px" viewBox="0 0 100 100" enable-background="new 0 0 100 100" xml:space="preserve">
<g>
	<circle fill="#453CBA" cx="50" cy="49.999" r="26.979"/>
	<g>
		<path fill="#F7F7F7" d="M50,59.083c-5.172,0-9.379-4.205-9.379-9.377s4.207-9.379,9.379-9.379s9.379,4.207,9.379,9.379
			S55.172,59.083,50,59.083z M50,42.606c-3.916,0-7.098,3.186-7.098,7.1s3.182,7.098,7.098,7.098s7.098-3.184,7.098-7.098
			S53.916,42.606,50,42.606z"/>
	</g>
	<g>
		<path fill="#F7F7F7" d="M50,65.556c-0.627,0-1.139-0.508-1.139-1.141V35.583c0-0.629,0.512-1.141,1.139-1.141
			c0.633,0,1.141,0.512,1.141,1.141v28.832C51.141,65.048,50.633,65.556,50,65.556z"/>
	</g>
	<g>
		<path fill="#F7F7F7" d="M64.418,51.14H35.584c-0.629,0-1.141-0.51-1.141-1.141c0-0.629,0.512-1.139,1.141-1.139h28.834
			c0.631,0,1.139,0.51,1.139,1.139C65.557,50.63,65.049,51.14,64.418,51.14z"/>
	</g>
</g>
</svg>
