<?xml version="1.0" encoding="utf-8"?>
<!-- Generator: Adobe Illustrator 16.0.0, SVG Export Plug-In . SVG Version: 6.00 Build 0)  -->
<!DOCTYPE svg PUBLIC "-//W3C//DTD SVG 1.1//EN" "http://www.w3.org/Graphics/SVG/1.1/DTD/svg11.dtd">
<svg version="1.1" id="Layer_1" xmlns="http://www.w3.org/2000/svg" xmlns:xlink="http://www.w3.org/1999/xlink" x="0px" y="0px"
	 width="50px" height="50px" viewBox="0 0 50 50" enable-background="new 0 0 50 50" xml:space="preserve">
<path fill="#999999" d="M22.855,13.347c1.18-2.39,3.108-2.39,4.289,0l0.78,1.583c1.178,2.386,4.3,4.652,6.935,5.039l1.746,0.253
	c2.639,0.383,3.233,2.218,1.326,4.076l-1.265,1.234c-1.908,1.857-3.098,5.525-2.647,8.149l0.297,1.742
	c0.449,2.624-1.109,3.758-3.467,2.52l-1.563-0.82c-2.357-1.241-6.215-1.241-8.573,0l-1.562,0.82
	c-2.357,1.238-3.917,0.104-3.467-2.52l0.297-1.742c0.45-2.624-0.741-6.292-2.649-8.149l-1.264-1.234
	c-1.906-1.858-1.312-3.693,1.323-4.076l1.75-0.253c2.635-0.387,5.757-2.653,6.935-5.039L22.855,13.347z"/>
</svg>
