<?xml version="1.0" encoding="utf-8"?>
<!-- Generator: Adobe Illustrator 16.0.0, SVG Export Plug-In . SVG Version: 6.00 Build 0)  -->
<!DOCTYPE svg PUBLIC "-//W3C//DTD SVG 1.1//EN" "http://www.w3.org/Graphics/SVG/1.1/DTD/svg11.dtd">
<svg version="1.1" id="Layer_1" xmlns="http://www.w3.org/2000/svg" xmlns:xlink="http://www.w3.org/1999/xlink" x="0px" y="0px"
	 width="50px" height="50px" viewBox="0 0 50 50" enable-background="new 0 0 50 50" xml:space="preserve">
<path fill="#EFD914" d="M22.856,13.347c1.18-2.39,3.108-2.39,4.288,0l0.78,1.583c1.178,2.386,4.3,4.652,6.935,5.039l1.748,0.253
	c2.637,0.383,3.231,2.218,1.325,4.076l-1.268,1.233c-1.906,1.858-3.096,5.526-2.646,8.15l0.297,1.742
	c0.45,2.624-1.111,3.758-3.467,2.52l-1.561-0.821c-2.36-1.241-6.218-1.241-8.577,0l-1.561,0.821
	c-2.358,1.238-3.917,0.104-3.468-2.52l0.298-1.742c0.449-2.624-0.742-6.292-2.648-8.15l-1.266-1.233
	c-1.906-1.858-1.312-3.693,1.325-4.076l1.749-0.253c2.635-0.387,5.756-2.653,6.934-5.039L22.856,13.347z"/>
</svg>
