<?xml version="1.0" encoding="utf-8"?>
<!-- Generator: Adobe Illustrator 16.0.0, SVG Export Plug-In . SVG Version: 6.00 Build 0)  -->
<!DOCTYPE svg PUBLIC "-//W3C//DTD SVG 1.1//EN" "http://www.w3.org/Graphics/SVG/1.1/DTD/svg11.dtd">
<svg version="1.1" id="Layer_1" xmlns="http://www.w3.org/2000/svg" xmlns:xlink="http://www.w3.org/1999/xlink" x="0px" y="0px"
	 width="100px" height="100px" viewBox="0 0 100 100" enable-background="new 0 0 100 100" xml:space="preserve">
<g>
	<g>
		<g>
			<path fill="#127045" d="M52.423,27.492c-8.269,0-14.976,6.707-14.976,14.979c0,8.271,6.707,14.974,14.976,14.974
				c8.272,0,14.979-6.703,14.979-14.974C67.402,34.199,60.695,27.492,52.423,27.492z M52.423,54.118
				c-6.436,0-11.646-5.215-11.646-11.646c0-6.436,5.211-11.65,11.646-11.65s11.65,5.215,11.65,11.65
				C64.073,48.903,58.858,54.118,52.423,54.118z"/>
		</g>
	</g>
	<g>
		<path fill="#127045" d="M52.484,78.729c-1.308,0-2.364-1.059-2.364-2.366V57.445c0-1.305,1.057-2.364,2.364-2.364
			c1.307,0,2.365,1.06,2.365,2.364v18.917C54.85,77.67,53.791,78.729,52.484,78.729z"/>
	</g>
</g>
</svg>
