<?xml version="1.0" encoding="utf-8"?>
<!-- Generator: Adobe Illustrator 16.0.0, SVG Export Plug-In . SVG Version: 6.00 Build 0)  -->
<!DOCTYPE svg PUBLIC "-//W3C//DTD SVG 1.1//EN" "http://www.w3.org/Graphics/SVG/1.1/DTD/svg11.dtd">
<svg version="1.1" id="Layer_1" xmlns="http://www.w3.org/2000/svg" xmlns:xlink="http://www.w3.org/1999/xlink" x="0px" y="0px"
	 width="50px" height="50px" viewBox="0 0 50 50" enable-background="new 0 0 50 50" xml:space="preserve">
<g>
	<rect x="23.296" y="16.166" fill="#302E2C" width="0.791" height="2.187"/>
	<rect x="24.882" y="16.166" fill="#302E2C" width="0.79" height="2.187"/>
	<rect x="26.467" y="16.166" fill="#302E2C" width="0.79" height="2.187"/>
	<rect x="28.052" y="16.166" fill="#302E2C" width="0.79" height="2.187"/>
	<g>
		<path fill="#4F360D" d="M35.572,25.987H16.149V11.929h19.423V25.987z M18.961,23.175h13.8V14.74h-13.8V23.175z"/>
	</g>
	<rect x="5.866" y="17.572" fill="#4F360D" width="39.988" height="24.836"/>
	<rect x="7.351" y="17.572" fill="#3D2D17" width="37.021" height="22.993"/>
	<g>
		
			<line fill="none" stroke="#91611A" stroke-width="0.25" stroke-miterlimit="10" x1="34.141" y1="17.863" x2="34.141" y2="17.631"/>
		
			<line fill="none" stroke="#91611A" stroke-width="0.25" stroke-miterlimit="10" stroke-dasharray="0.9136,0.9136" x1="34.141" y1="17.201" x2="34.141" y2="13.99"/>
		<polyline fill="none" stroke="#91611A" stroke-width="0.25" stroke-miterlimit="10" points="34.141,13.777 34.141,13.543 
			33.905,13.543 		"/>
		
			<line fill="none" stroke="#91611A" stroke-width="0.25" stroke-miterlimit="10" stroke-dasharray="0.9939,0.9939" x1="33.44" y1="13.543" x2="17.837" y2="13.543"/>
		<polyline fill="none" stroke="#91611A" stroke-width="0.25" stroke-miterlimit="10" points="17.604,13.543 17.37,13.543 
			17.37,13.777 		"/>
		
			<line fill="none" stroke="#91611A" stroke-width="0.25" stroke-miterlimit="10" stroke-dasharray="1.0296,1.0296" x1="17.37" y1="14.258" x2="17.37" y2="17.878"/>
		<line fill="none" stroke="#91611A" stroke-width="0.25" stroke-miterlimit="10" x1="17.37" y1="18.119" x2="17.37" y2="18.353"/>
	</g>
	<rect x="7.351" y="17.572" fill="#2D1D08" width="37.021" height="2.188"/>
	<rect x="21.8" y="16.771" fill="#2D1D08" width="8.122" height="2.187"/>
</g>
</svg>
