<?xml version="1.0" encoding="utf-8"?>
<!-- Generator: Adobe Illustrator 16.0.0, SVG Export Plug-In . SVG Version: 6.00 Build 0)  -->
<!DOCTYPE svg PUBLIC "-//W3C//DTD SVG 1.1//EN" "http://www.w3.org/Graphics/SVG/1.1/DTD/svg11.dtd">
<svg version="1.1" id="Layer_1" xmlns="http://www.w3.org/2000/svg" xmlns:xlink="http://www.w3.org/1999/xlink" x="0px" y="0px"
	 width="50px" height="50px" viewBox="0 0 50 50" enable-background="new 0 0 50 50" xml:space="preserve">
<path fill="#453CBA" d="M34.855,25c0,5.441-4.414,9.855-9.855,9.855S15.145,30.441,15.145,25s4.414-9.855,9.855-9.855
	S34.855,19.559,34.855,25z M28.221,22.074c0.064-0.013,0.129-0.244,0.167-0.295c0.077-0.09,0.18-0.142,0.282-0.192
	c0.219-0.09,0.437-0.116,0.668-0.154c0.218-0.052,0.487-0.052,0.654,0.141c-0.039-0.038,0.27-0.308,0.308-0.32
	c0.115-0.064,0.308-0.038,0.385-0.154c0.026-0.038,0.026-0.282,0.026-0.282c-0.219,0.025-0.296-0.18-0.309-0.359
	c0,0.013-0.025,0.052-0.077,0.103c0.013-0.192-0.23-0.051-0.32-0.077c-0.295-0.076-0.257-0.282-0.347-0.5
	c-0.052-0.115-0.192-0.154-0.244-0.27c-0.051-0.077-0.076-0.244-0.192-0.257c-0.077-0.013-0.218,0.27-0.243,0.257
	c-0.116-0.064-0.167,0.025-0.257,0.077c-0.077,0.051-0.142,0.025-0.219,0.064c0.231-0.077-0.103-0.206-0.218-0.18
	c0.18-0.052,0.09-0.244-0.013-0.334c0.025,0,0.038,0,0.064,0c-0.026-0.115-0.386-0.218-0.501-0.295s-0.731-0.206-0.859-0.129
	c-0.154,0.09,0.038,0.347,0.038,0.476c0.013,0.153-0.154,0.192-0.154,0.32c0,0.218,0.411,0.18,0.309,0.475
	c-0.064,0.18-0.309,0.219-0.411,0.359c-0.103,0.129,0.013,0.359,0.116,0.449c0.103,0.077-0.18,0.205-0.219,0.231
	c-0.218,0.103-0.385-0.219-0.437-0.411c-0.038-0.141-0.051-0.308-0.205-0.385c-0.077-0.025-0.32-0.064-0.372,0.013
	c-0.077-0.192-0.347-0.27-0.526-0.334c-0.257-0.09-0.475-0.09-0.744-0.051c0.09-0.013-0.025-0.411-0.244-0.347
	c0.064-0.128,0.039-0.27,0.064-0.397c0.025-0.103,0.077-0.206,0.154-0.296c0.025-0.051,0.308-0.346,0.218-0.358
	c0.219,0.025,0.462,0.038,0.642-0.142c0.116-0.115,0.167-0.308,0.282-0.437c0.167-0.192,0.372,0.052,0.552,0.064
	c0.257,0.013,0.244-0.27,0.104-0.397c0.166,0.013,0.025-0.296-0.064-0.334c-0.115-0.039-0.552,0.077-0.321,0.167
	c-0.051-0.026-0.359,0.615-0.539,0.295c-0.051-0.064-0.076-0.334-0.192-0.347c-0.103,0-0.167,0.115-0.205,0.192
	c0.064-0.167-0.359-0.282-0.449-0.295c0.192-0.128,0.039-0.27-0.103-0.347c-0.103-0.063-0.424-0.115-0.514-0.013
	c-0.243,0.295,0.257,0.334,0.386,0.411c0.038,0.025,0.192,0.115,0.103,0.18c-0.077,0.038-0.309,0.103-0.334,0.153
	c-0.077,0.116,0.09,0.244-0.025,0.359c-0.116-0.115-0.116-0.308-0.205-0.437c0.115,0.142-0.463,0.064-0.449,0.064
	c-0.193,0-0.501,0.129-0.642-0.064c-0.026-0.051-0.026-0.346,0.051-0.282c-0.115-0.09-0.192-0.18-0.27-0.23
	c-0.423,0.141-0.821,0.32-1.206,0.526c0.052,0.013,0.09,0.013,0.154-0.014c0.103-0.038,0.192-0.103,0.295-0.153
	c0.128-0.052,0.397-0.206,0.539-0.09c0.013-0.026,0.051-0.052,0.063-0.064c0.09,0.103,0.18,0.205,0.257,0.321
	c-0.103-0.052-0.27-0.026-0.385-0.014c-0.09,0.026-0.244,0.052-0.282,0.154c0.038,0.064,0.09,0.167,0.064,0.231
	c-0.167-0.116-0.296-0.309-0.526-0.334c-0.103,0-0.205,0-0.282,0.013c-1.232,0.681-2.271,1.668-3.016,2.849
	c0.051,0.052,0.103,0.09,0.153,0.103c0.129,0.039,0,0.411,0.244,0.219c0.077,0.064,0.09,0.154,0.039,0.244
	c0.013-0.014,0.525,0.32,0.564,0.346c0.09,0.077,0.23,0.167,0.27,0.27c0.025,0.09-0.052,0.192-0.129,0.231
	c-0.013-0.025-0.205-0.219-0.23-0.167c-0.039,0.064,0,0.41,0.141,0.397c-0.205,0.013-0.115,0.809-0.167,0.963
	c0,0.013,0.026,0.013,0.026,0.013c-0.039,0.154,0.09,0.757,0.347,0.693c-0.167,0.038,0.295,0.629,0.359,0.667
	c0.166,0.115,0.358,0.192,0.475,0.359c0.128,0.18,0.128,0.449,0.308,0.59c-0.051,0.154,0.27,0.334,0.257,0.552
	c-0.025,0.014-0.039,0.014-0.064,0.026c0.064,0.18,0.309,0.18,0.398,0.346c0.051,0.104,0,0.347,0.166,0.296
	c0.026-0.282-0.166-0.564-0.308-0.796c-0.077-0.128-0.154-0.244-0.218-0.372c-0.064-0.115-0.077-0.257-0.129-0.385
	c0.052,0.013,0.334,0.115,0.309,0.153c-0.104,0.257,0.41,0.706,0.552,0.873c0.038,0.038,0.333,0.424,0.18,0.424
	c0.166,0,0.397,0.256,0.475,0.385c0.115,0.192,0.09,0.437,0.167,0.642c0.076,0.257,0.436,0.372,0.642,0.487
	c0.18,0.09,0.333,0.219,0.513,0.282c0.27,0.103,0.334,0.013,0.564-0.025c0.334-0.052,0.373,0.32,0.643,0.462
	c0.166,0.09,0.525,0.218,0.705,0.142c-0.077,0.025,0.27,0.552,0.295,0.59c0.116,0.154,0.334,0.231,0.463,0.385
	c0.038-0.025,0.076-0.063,0.09-0.115c-0.052,0.142,0.192,0.41,0.32,0.385c0.142-0.025,0.18-0.308,0.18-0.41
	c-0.257,0.128-0.487,0.025-0.629-0.231c-0.025-0.064-0.23-0.423-0.051-0.423c0.243,0,0.076-0.193,0.051-0.373
	s-0.205-0.295-0.295-0.448c-0.077,0.153-0.334,0.115-0.411-0.014c0,0.039-0.038,0.104-0.038,0.154c-0.064,0-0.128,0.013-0.192-0.013
	c0.025-0.154,0.038-0.347,0.077-0.514c0.063-0.23,0.487-0.68-0.064-0.654c-0.192,0.013-0.27,0.09-0.334,0.257
	c-0.063,0.154-0.038,0.295-0.218,0.372c-0.115,0.052-0.501,0.025-0.616-0.038c-0.243-0.142-0.41-0.591-0.41-0.848
	c-0.013-0.346,0.167-0.654,0-0.975c0.077-0.064,0.153-0.192,0.243-0.257c0.077-0.052,0.167,0.038,0.206-0.115
	c-0.039-0.026-0.09-0.077-0.104-0.077c0.193,0.09,0.553-0.129,0.719,0c0.103,0.077,0.219,0.103,0.282-0.026
	c0.014-0.038-0.09-0.192-0.038-0.295c0.038,0.219,0.18,0.257,0.372,0.115c0.077,0.077,0.282,0.052,0.424,0.129
	c0.141,0.09,0.167,0.23,0.333,0.038c0.104,0.154,0.116,0.154,0.154,0.309c0.039,0.141,0.115,0.5,0.244,0.564
	c0.27,0.167,0.205-0.282,0.18-0.437c-0.013-0.013-0.013-0.437-0.026-0.437c-0.41-0.09-0.256-0.41-0.025-0.629
	c0.039-0.025,0.334-0.128,0.462-0.23c0.115-0.103,0.257-0.282,0.192-0.449c0.064,0,0.116-0.052,0.142-0.115
	c-0.039-0.013-0.192-0.142-0.219-0.129c0.09-0.051,0.077-0.128,0.026-0.205c0.128-0.077,0.063-0.218,0.192-0.27
	c0.141,0.192,0.424-0.025,0.282-0.18c0.128-0.18,0.424-0.09,0.5-0.257c0.193,0.052,0.052-0.192,0.154-0.333
	c0.09-0.116,0.244-0.116,0.359-0.18c0,0.013,0.321-0.18,0.218-0.192c0.219,0.025,0.655-0.206,0.321-0.398
	c0.052-0.115-0.115-0.167-0.231-0.192c0.09-0.025,0.206,0.025,0.283-0.025c0.166-0.115,0.051-0.167-0.09-0.205
	c-0.18-0.052-0.411,0.063-0.552,0.153C28.413,21.907,28.35,22.049,28.221,22.074z M30.929,30.659
	c-0.077-0.077-0.218-0.052-0.321-0.103c-0.103-0.039-0.18-0.077-0.308-0.103c0.025-0.257-0.257-0.347-0.437-0.475
	c-0.167-0.129-0.27-0.27-0.513-0.219c-0.026,0.013-0.282,0.103-0.231,0.154c-0.167-0.142-0.244-0.219-0.462-0.282
	c-0.205-0.064-0.347-0.321-0.552-0.09c-0.103,0.103-0.052,0.257-0.103,0.359c-0.167-0.142,0.154-0.309,0.025-0.462
	c-0.153-0.18-0.423,0.115-0.552,0.192c-0.077,0.063-0.167,0.09-0.218,0.167c-0.064,0.09-0.09,0.205-0.142,0.295
	c-0.038-0.103-0.257-0.077-0.27-0.154c0.052,0.309,0.052,0.629,0.116,0.937c0.038,0.18,0,0.476-0.154,0.616
	c-0.154,0.142-0.347,0.295-0.372,0.514c-0.026,0.153,0.013,0.295,0.153,0.333c0.014,0.193-0.205,0.334-0.192,0.539
	c0,0.013,0.013,0.142,0.026,0.206C28.183,32.776,29.748,31.904,30.929,30.659z"/>
</svg>
