<?xml version="1.0" encoding="utf-8"?>
<!-- Generator: Adobe Illustrator 16.0.0, SVG Export Plug-In . SVG Version: 6.00 Build 0)  -->
<!DOCTYPE svg PUBLIC "-//W3C//DTD SVG 1.1//EN" "http://www.w3.org/Graphics/SVG/1.1/DTD/svg11.dtd">
<svg version="1.1" id="Layer_1" xmlns="http://www.w3.org/2000/svg" xmlns:xlink="http://www.w3.org/1999/xlink" x="0px" y="0px"
	 width="50px" height="50px" viewBox="0 0 50 50" enable-background="new 0 0 50 50" xml:space="preserve">
<path fill="#F7F7F7" d="M34.855,34.915h-1.643v1.643c0,0.911-0.731,1.643-1.643,1.643s-1.643-0.731-1.643-1.643v-1.643h-9.855v1.643
	c0,0.911-0.731,1.643-1.643,1.643s-1.643-0.731-1.643-1.643v-1.643h-1.643v-7.738c0-1.052,0.09-1.834,0.321-2.861l1.321-5.826
	c0.244-2.053,3.837-3.285,8.213-3.285s7.969,1.232,8.213,3.285l1.348,5.826c0.23,1.027,0.295,1.81,0.295,2.861V34.915z
	 M18.43,29.166c-0.911,0-1.643,0.731-1.643,1.643s0.731,1.643,1.643,1.643s1.643-0.731,1.643-1.643S19.341,29.166,18.43,29.166z
	 M31.698,20.799c-0.076-0.385-0.41-0.667-0.808-0.667H19.109c-0.397,0-0.731,0.282-0.808,0.667l-0.925,4.928
	c-0.09,0.514,0.296,0.976,0.809,0.976h13.629c0.513,0,0.898-0.462,0.809-0.976L31.698,20.799z M29.106,17.257h-8.213
	c-0.334,0-0.616,0.27-0.616,0.616s0.282,0.616,0.616,0.616h8.213c0.347,0,0.616-0.27,0.616-0.616S29.453,17.257,29.106,17.257z
	 M31.57,29.166c-0.911,0-1.643,0.731-1.643,1.643s0.731,1.643,1.643,1.643s1.643-0.731,1.643-1.643S32.481,29.166,31.57,29.166z"/>
</svg>
