<?xml version="1.0" encoding="iso-8859-1"?>
<!-- Generator: Adobe Illustrator 16.0.0, SVG Export Plug-In . SVG Version: 6.00 Build 0)  -->
<!DOCTYPE svg PUBLIC "-//W3C//DTD SVG 1.1//EN" "http://www.w3.org/Graphics/SVG/1.1/DTD/svg11.dtd">
<svg version="1.1" id="Capa_1" xmlns="http://www.w3.org/2000/svg" xmlns:xlink="http://www.w3.org/1999/xlink" x="0px" y="0px"
	 width="31.595px" height="31.595px" viewBox="0 0 31.595 31.595" style="enable-background:new 0 0 31.595 31.595;"
	 xml:space="preserve">
<g>
	<polygon points="21.923,3.386 13.46,3.386 13.46,15.011 9.671,15.011 9.671,10.943 4.594,10.943 4.594,20.63 9.671,20.63 
		9.671,16.301 13.46,16.301 13.46,27.928 21.923,27.928 21.923,31.595 27.001,31.595 27.001,21.908 21.923,21.908 21.923,26.639 
		14.749,26.639 14.749,16.301 21.923,16.301 21.923,20.63 27.001,20.63 27.001,10.943 21.923,10.943 21.923,15.011 14.749,15.011 
		14.749,4.674 21.923,4.674 21.923,9.686 27.001,9.686 27.001,0 21.923,0 	"/>
</g>
<g>
</g>
<g>
</g>
<g>
</g>
<g>
</g>
<g>
</g>
<g>
</g>
<g>
</g>
<g>
</g>
<g>
</g>
<g>
</g>
<g>
</g>
<g>
</g>
<g>
</g>
<g>
</g>
<g>
</g>
</svg>
