<?xml version="1.0" encoding="utf-8"?>
<!-- Generator: Adobe Illustrator 16.0.0, SVG Export Plug-In . SVG Version: 6.00 Build 0)  -->
<!DOCTYPE svg PUBLIC "-//W3C//DTD SVG 1.1//EN" "http://www.w3.org/Graphics/SVG/1.1/DTD/svg11.dtd">
<svg version="1.1" id="Layer_1" xmlns="http://www.w3.org/2000/svg" xmlns:xlink="http://www.w3.org/1999/xlink" x="0px" y="0px"
	 width="50px" height="50px" viewBox="0 0 50 50" enable-background="new 0 0 50 50" xml:space="preserve">
<path fill="#453CBA" d="M16.89,30.197h-1.72c-1.283,0-2.489-0.616-2.489-2.04c0-1.04-0.038-4.53,1.591-4.53
	c0.27,0,1.604,1.091,3.337,1.091c0.59,0,1.155-0.103,1.707-0.295c-0.039,0.282-0.064,0.564-0.064,0.847
	c0,1.168,0.372,2.322,1.039,3.285C18.956,28.593,17.75,29.171,16.89,30.197z M17.608,23.627c-1.81,0-3.285-1.476-3.285-3.285
	s1.476-3.285,3.285-3.285s3.285,1.476,3.285,3.285S19.418,23.627,17.608,23.627z M30.607,40.053H19.393
	c-2.054,0-3.427-1.245-3.427-3.323c0-2.9,0.68-7.354,4.44-7.354c0.436,0,2.027,1.784,4.594,1.784s4.158-1.784,4.594-1.784
	c3.761,0,4.44,4.453,4.44,7.354C34.034,38.808,32.661,40.053,30.607,40.053z M25,30.197c-2.721,0-4.928-2.207-4.928-4.928
	s2.207-4.928,4.928-4.928s4.928,2.207,4.928,4.928S27.721,30.197,25,30.197z M32.392,23.627c-1.81,0-3.285-1.476-3.285-3.285
	s1.476-3.285,3.285-3.285s3.285,1.476,3.285,3.285S34.201,23.627,32.392,23.627z M34.83,30.197h-1.72
	c-0.86-1.026-2.066-1.604-3.4-1.643c0.667-0.963,1.039-2.117,1.039-3.285c0-0.282-0.025-0.564-0.064-0.847
	c0.552,0.192,1.117,0.295,1.707,0.295c1.732,0,3.067-1.091,3.337-1.091c1.629,0,1.591,3.49,1.591,4.53
	C37.319,29.581,36.113,30.197,34.83,30.197z"/>
</svg>
