<?xml version="1.0" encoding="utf-8"?>
<!-- Generator: Adobe Illustrator 16.0.0, SVG Export Plug-In . SVG Version: 6.00 Build 0)  -->
<!DOCTYPE svg PUBLIC "-//W3C//DTD SVG 1.1//EN" "http://www.w3.org/Graphics/SVG/1.1/DTD/svg11.dtd">
<svg version="1.1" id="Layer_1" xmlns="http://www.w3.org/2000/svg" xmlns:xlink="http://www.w3.org/1999/xlink" x="0px" y="0px"
	 width="50px" height="50px" viewBox="0 0 50 50" enable-background="new 0 0 50 50" xml:space="preserve">
<path fill="#F7F7F7" d="M37.319,32.944c0,1.129-0.924,2.053-2.053,2.053h-6.981c0,1.091,0.821,2.015,0.821,2.464
	s-0.372,0.821-0.821,0.821h-6.57c-0.449,0-0.821-0.372-0.821-0.821c0-0.475,0.821-1.348,0.821-2.464h-6.981
	c-1.129,0-2.053-0.924-2.053-2.053V18.981c0-1.129,0.924-2.053,2.053-2.053h20.533c1.129,0,2.053,0.924,2.053,2.053V32.944z
	 M35.677,18.981c0-0.218-0.192-0.41-0.41-0.41H14.733c-0.218,0-0.41,0.192-0.41,0.41v10.678c0,0.218,0.192,0.41,0.41,0.41h20.533
	c0.218,0,0.41-0.192,0.41-0.41V18.981z"/>
</svg>
