<?xml version="1.0" encoding="iso-8859-1"?>
<!-- Generator: Adobe Illustrator 16.0.0, SVG Export Plug-In . SVG Version: 6.00 Build 0)  -->
<!DOCTYPE svg PUBLIC "-//W3C//DTD SVG 1.1//EN" "http://www.w3.org/Graphics/SVG/1.1/DTD/svg11.dtd">
<svg version="1.1" id="Capa_1" xmlns="http://www.w3.org/2000/svg" xmlns:xlink="http://www.w3.org/1999/xlink" x="0px" y="0px"
	 width="31.594px" height="31.594px" viewBox="0 0 31.594 31.594" style="enable-background:new 0 0 31.594 31.594;"
	 xml:space="preserve">
<g>
	<polygon points="28.209,21.923 28.209,13.46 16.583,13.46 16.583,9.671 20.65,9.671 20.65,4.594 10.964,4.594 10.964,9.671 
		15.293,9.671 15.293,13.46 3.667,13.46 3.667,21.923 0,21.923 0,27 9.686,27 9.686,21.923 4.957,21.923 4.957,14.749 
		15.293,14.749 15.293,21.923 10.964,21.923 10.964,27 20.65,27 20.65,21.923 16.583,21.923 16.583,14.749 26.919,14.749 
		26.919,21.923 21.908,21.923 21.908,27 31.594,27 31.594,21.923 	"/>
</g>
<g>
</g>
<g>
</g>
<g>
</g>
<g>
</g>
<g>
</g>
<g>
</g>
<g>
</g>
<g>
</g>
<g>
</g>
<g>
</g>
<g>
</g>
<g>
</g>
<g>
</g>
<g>
</g>
<g>
</g>
</svg>
