<?xml version="1.0" encoding="utf-8"?>
<!-- Generator: Adobe Illustrator 16.0.0, SVG Export Plug-In . SVG Version: 6.00 Build 0)  -->
<!DOCTYPE svg PUBLIC "-//W3C//DTD SVG 1.1//EN" "http://www.w3.org/Graphics/SVG/1.1/DTD/svg11.dtd">
<svg version="1.1" id="Layer_1" xmlns="http://www.w3.org/2000/svg" xmlns:xlink="http://www.w3.org/1999/xlink" x="0px" y="0px"
	 width="50px" height="50px" viewBox="0 0 50 50" enable-background="new 0 0 50 50" xml:space="preserve">
<path fill="#453CBA" d="M31.295,24.044L20.617,34.721h-5.338v-5.338l10.677-10.678L31.295,24.044z M21.105,31.91l-3.016-3.016
	l-1.168,1.168v1.373h1.643v1.643h1.373L21.105,31.91z M26.367,20.887c-0.077,0-0.154,0.026-0.219,0.09l-6.955,6.956
	c-0.064,0.063-0.09,0.141-0.09,0.218c0,0.167,0.115,0.282,0.282,0.282c0.077,0,0.154-0.025,0.218-0.09l6.956-6.955
	c0.063-0.064,0.09-0.142,0.09-0.218C26.649,21.003,26.533,20.887,26.367,20.887z M34.246,21.093l-2.131,2.13l-5.338-5.338
	l2.13-2.118c0.296-0.308,0.719-0.487,1.155-0.487s0.859,0.18,1.168,0.487l3.016,3.003c0.295,0.309,0.475,0.731,0.475,1.168
	S34.541,20.797,34.246,21.093z"/>
</svg>
