<?xml version="1.0" encoding="utf-8"?>
<!-- Generator: Adobe Illustrator 16.0.0, SVG Export Plug-In . SVG Version: 6.00 Build 0)  -->
<!DOCTYPE svg PUBLIC "-//W3C//DTD SVG 1.1//EN" "http://www.w3.org/Graphics/SVG/1.1/DTD/svg11.dtd">
<svg version="1.1" id="Layer_1" xmlns="http://www.w3.org/2000/svg" xmlns:xlink="http://www.w3.org/1999/xlink" x="0px" y="0px"
	 width="50px" height="50px" viewBox="0 0 50 50" enable-background="new 0 0 50 50" xml:space="preserve">
<path fill="#453CBA" d="M33.56,27.681l-7.995,7.699c-0.153,0.154-0.359,0.231-0.564,0.231s-0.411-0.077-0.564-0.231l-8.008-7.725
	c-0.103-0.09-2.926-2.669-2.926-5.749c0-3.76,2.297-6.006,6.134-6.006c2.246,0,4.351,1.771,5.364,2.771
	c1.014-1.001,3.118-2.771,5.364-2.771c3.837,0,6.134,2.246,6.134,6.006C36.498,24.987,33.675,27.566,33.56,27.681z M30.364,17.543
	c-1.912,0-4.068,2.066-4.735,2.861c-0.308,0.372-0.95,0.372-1.258,0c-0.667-0.795-2.823-2.861-4.735-2.861
	c-2.053,0-4.491,0.757-4.491,4.363c0,2.349,2.374,4.529,2.399,4.556L25,33.648l7.443-7.173c0.038-0.039,2.412-2.22,2.412-4.568
	C34.855,18.3,32.417,17.543,30.364,17.543z"/>
</svg>
