<?xml version="1.0" encoding="utf-8"?>
<!-- Generator: Adobe Illustrator 16.0.0, SVG Export Plug-In . SVG Version: 6.00 Build 0)  -->
<!DOCTYPE svg PUBLIC "-//W3C//DTD SVG 1.1//EN" "http://www.w3.org/Graphics/SVG/1.1/DTD/svg11.dtd">
<svg version="1.1" id="Layer_1" xmlns="http://www.w3.org/2000/svg" xmlns:xlink="http://www.w3.org/1999/xlink" x="0px" y="0px"
	 width="50px" height="50px" viewBox="0 0 50 50" enable-background="new 0 0 50 50" xml:space="preserve">
<path fill="#453CBA" d="M38.141,26.094c0,0.911-0.731,1.643-1.643,1.643h-0.192l-1.476,8.495c-0.142,0.783-0.821,1.36-1.617,1.36
	H16.787c-0.796,0-1.476-0.577-1.617-1.36l-1.476-8.495h-0.192c-0.911,0-1.643-0.731-1.643-1.643s0.731-1.643,1.643-1.643h22.996
	C37.409,24.451,38.141,25.183,38.141,26.094z M16.774,23.63H15.08l1.297-5.659c0.333-1.501,1.655-2.554,3.195-2.554h2.143
	c0-0.449,0.372-0.821,0.821-0.821h4.928c0.449,0,0.821,0.372,0.821,0.821h2.143c1.54,0,2.862,1.053,3.195,2.554l1.297,5.659h-1.694
	l-1.193-5.287c-0.18-0.757-0.834-1.283-1.604-1.283h-2.143c0,0.449-0.372,0.821-0.821,0.821h-4.928
	c-0.449,0-0.821-0.372-0.821-0.821h-2.143c-0.771,0-1.425,0.526-1.604,1.283L16.774,23.63z M18.84,33.832l-0.41-5.339
	c-0.038-0.449-0.437-0.795-0.886-0.757s-0.795,0.437-0.757,0.886l0.41,5.338c0.039,0.424,0.398,0.757,0.822,0.757
	c0.025,0,0.038,0,0.063,0C18.532,34.679,18.879,34.281,18.84,33.832z M23.357,28.558c0-0.449-0.372-0.821-0.821-0.821
	s-0.821,0.372-0.821,0.821v5.339c0,0.448,0.372,0.82,0.821,0.82s0.821-0.372,0.821-0.82V28.558z M28.285,28.558
	c0-0.449-0.372-0.821-0.821-0.821s-0.821,0.372-0.821,0.821v5.339c0,0.448,0.372,0.82,0.821,0.82s0.821-0.372,0.821-0.82V28.558z
	 M33.213,28.622c0.038-0.449-0.308-0.848-0.757-0.886s-0.848,0.308-0.886,0.757l-0.41,5.339c-0.039,0.449,0.308,0.847,0.757,0.885
	c0.025,0,0.038,0,0.063,0c0.424,0,0.783-0.333,0.822-0.757L33.213,28.622z"/>
</svg>
