<?xml version="1.0" encoding="utf-8"?>
<!-- Generator: Adobe Illustrator 16.0.0, SVG Export Plug-In . SVG Version: 6.00 Build 0)  -->
<!DOCTYPE svg PUBLIC "-//W3C//DTD SVG 1.1//EN" "http://www.w3.org/Graphics/SVG/1.1/DTD/svg11.dtd">
<svg version="1.1" id="Layer_1" xmlns="http://www.w3.org/2000/svg" xmlns:xlink="http://www.w3.org/1999/xlink" x="0px" y="0px"
	 width="50px" height="50px" viewBox="0 0 50 50" enable-background="new 0 0 50 50" xml:space="preserve">
<path fill="#453CBA" d="M34.458,27.266c-0.064,0.077-0.167,0.129-0.27,0.142c-0.013,0-0.026,0-0.039,0
	c-0.103,0-0.192-0.026-0.27-0.09L25,19.914l-8.88,7.404c-0.09,0.063-0.192,0.103-0.309,0.09c-0.103-0.013-0.205-0.064-0.27-0.142
	l-0.795-0.949c-0.142-0.167-0.116-0.437,0.051-0.578l9.227-7.687c0.539-0.449,1.412-0.449,1.951,0l3.131,2.618v-2.503
	c0-0.23,0.18-0.41,0.411-0.41h2.463c0.231,0,0.411,0.18,0.411,0.41v5.236l2.811,2.335c0.167,0.142,0.192,0.411,0.051,0.578
	L34.458,27.266z M32.392,33.362c0,0.449-0.372,0.821-0.821,0.821h-4.928v-4.928h-3.285v4.928H18.43
	c-0.449,0-0.821-0.372-0.821-0.821v-6.159c0-0.026,0.013-0.052,0.013-0.077L25,21.042l7.379,6.083
	c0.013,0.025,0.013,0.051,0.013,0.077V33.362z"/>
</svg>
