<?xml version="1.0" encoding="utf-8"?>
<!-- Generator: Adobe Illustrator 16.0.0, SVG Export Plug-In . SVG Version: 6.00 Build 0)  -->
<!DOCTYPE svg PUBLIC "-//W3C//DTD SVG 1.1//EN" "http://www.w3.org/Graphics/SVG/1.1/DTD/svg11.dtd">
<svg version="1.1" id="Layer_1" xmlns="http://www.w3.org/2000/svg" xmlns:xlink="http://www.w3.org/1999/xlink" x="0px" y="0px"
	 width="50px" height="50px" viewBox="0 0 50 50" enable-background="new 0 0 50 50" xml:space="preserve">
<g>
	<path fill="#F7F7F7" d="M24.178,26.57c0,1.039-0.667,1.977-1.643,2.322v9.997c0,0.898-0.744,1.643-1.643,1.643H19.25
		c-0.898,0-1.643-0.744-1.643-1.643v-9.997c-0.976-0.346-1.643-1.283-1.643-2.322v-8.213c0-0.449,0.372-0.821,0.821-0.821
		s0.821,0.372,0.821,0.821v5.339c0,0.448,0.372,0.82,0.821,0.82s0.821-0.372,0.821-0.82v-5.339c0-0.449,0.372-0.821,0.821-0.821
		s0.821,0.372,0.821,0.821v5.339c0,0.448,0.372,0.82,0.821,0.82s0.821-0.372,0.821-0.82v-5.339c0-0.449,0.372-0.821,0.821-0.821
		s0.821,0.372,0.821,0.821V26.57z M34.033,38.89c0,0.898-0.744,1.643-1.643,1.643h-1.643c-0.898,0-1.643-0.744-1.643-1.643v-6.57
		h-2.874c-0.219,0-0.411-0.192-0.411-0.41V21.643c0-2.259,1.848-4.106,4.106-4.106h3.285c0.449,0,0.821,0.372,0.821,0.821V38.89z"/>
</g>
</svg>
