<?xml version="1.0" encoding="utf-8"?>
<!-- Generator: Adobe Illustrator 16.0.0, SVG Export Plug-In . SVG Version: 6.00 Build 0)  -->
<!DOCTYPE svg PUBLIC "-//W3C//DTD SVG 1.1//EN" "http://www.w3.org/Graphics/SVG/1.1/DTD/svg11.dtd">
<svg version="1.1" id="Layer_1" xmlns="http://www.w3.org/2000/svg" xmlns:xlink="http://www.w3.org/1999/xlink" x="0px" y="0px"
	 width="50px" height="50px" viewBox="0 0 50 50" enable-background="new 0 0 50 50" xml:space="preserve">
<path fill="#F7F7F7" d="M33.623,33.403h-5.928c0.038,0.821,0.141,1.681,0.141,2.516c0,0.423-0.347,0.77-0.783,0.77h-4.105
	c-0.437,0-0.783-0.347-0.783-0.77c0-0.835,0.103-1.694,0.141-2.516h-5.928c-0.449,0-0.822-0.372-0.822-0.821
	c0-0.218,0.09-0.424,0.244-0.577l5.159-5.172H18.02c-0.449,0-0.822-0.372-0.822-0.821c0-0.218,0.09-0.424,0.244-0.577l5.159-5.172
	h-2.528c-0.449,0-0.821-0.372-0.821-0.821c0-0.218,0.09-0.424,0.244-0.577l4.928-4.928c0.153-0.154,0.359-0.244,0.577-0.244
	s0.424,0.09,0.577,0.244l4.928,4.928c0.154,0.153,0.244,0.359,0.244,0.577c0,0.449-0.372,0.821-0.821,0.821h-2.528l5.159,5.172
	c0.154,0.153,0.244,0.359,0.244,0.577c0,0.449-0.373,0.821-0.822,0.821h-2.938l5.159,5.172c0.154,0.153,0.244,0.359,0.244,0.577
	C34.445,33.031,34.072,33.403,33.623,33.403z"/>
</svg>
