<?xml version="1.0" encoding="utf-8"?>
<!-- Generator: Adobe Illustrator 16.0.0, SVG Export Plug-In . SVG Version: 6.00 Build 0)  -->
<!DOCTYPE svg PUBLIC "-//W3C//DTD SVG 1.1//EN" "http://www.w3.org/Graphics/SVG/1.1/DTD/svg11.dtd">
<svg version="1.1" id="Layer_1" xmlns="http://www.w3.org/2000/svg" xmlns:xlink="http://www.w3.org/1999/xlink" x="0px" y="0px"
	 width="50px" height="50px" viewBox="0 0 50 50" enable-background="new 0 0 50 50" xml:space="preserve">
<path fill="#F7F7F7" d="M33.622,12.978h3.696c0.449,0,0.821,0.372,0.821,0.821v3.696c0,0.23-0.18,0.41-0.41,0.41h-0.822
	c-0.23,0-0.41-0.18-0.41-0.41v-1.72l-3.26,3.272c1.258,1.578,1.887,3.67,1.502,5.915c-0.539,3.08-3.042,5.531-6.134,5.993
	c-1.951,0.295-3.786-0.18-5.249-1.155c-0.963,0.642-2.079,1.065-3.285,1.193v1.694h1.232c0.23,0,0.41,0.18,0.41,0.41v0.822
	c0,0.23-0.18,0.41-0.41,0.41h-1.232v1.232c0,0.23-0.18,0.41-0.41,0.41h-0.822c-0.23,0-0.41-0.18-0.41-0.41v-1.232h-1.232
	c-0.23,0-0.41-0.18-0.41-0.41v-0.822c0-0.23,0.18-0.41,0.41-0.41h1.232v-1.694c-4.029-0.448-7.097-4.145-6.493-8.393
	c0.437-3.195,2.977-5.762,6.159-6.249c1.964-0.295,3.799,0.18,5.262,1.155c1.181-0.783,2.592-1.245,4.106-1.245
	c1.745,0,3.35,0.616,4.606,1.617l3.272-3.26h-1.72c-0.23,0-0.41-0.18-0.41-0.41v-0.822C33.212,13.157,33.392,12.978,33.622,12.978z
	 M19.25,29.403c1.014,0,1.977-0.27,2.798-0.731c-1.22-1.321-1.977-3.08-1.977-5.018s0.757-3.696,1.977-5.018
	c-0.821-0.462-1.784-0.731-2.798-0.731c-3.17,0-5.749,2.579-5.749,5.749S16.08,29.403,19.25,29.403z M24.999,23.654
	c0-1.565-0.629-2.978-1.643-4.017c-1.014,1.039-1.643,2.451-1.643,4.017s0.629,2.978,1.643,4.017
	C24.37,26.632,24.999,25.22,24.999,23.654z M33.212,23.654c0-3.17-2.579-5.749-5.749-5.749c-1.014,0-1.977,0.27-2.798,0.731
	c1.22,1.321,1.977,3.08,1.977,5.018s-0.757,3.696-1.977,5.018c0.821,0.462,1.784,0.731,2.798,0.731
	C30.633,29.403,33.212,26.824,33.212,23.654z"/>
</svg>
