<?xml version="1.0" encoding="utf-8"?>
<!-- Generator: Adobe Illustrator 16.0.0, SVG Export Plug-In . SVG Version: 6.00 Build 0)  -->
<!DOCTYPE svg PUBLIC "-//W3C//DTD SVG 1.1//EN" "http://www.w3.org/Graphics/SVG/1.1/DTD/svg11.dtd">
<svg version="1.1" id="Layer_1" xmlns="http://www.w3.org/2000/svg" xmlns:xlink="http://www.w3.org/1999/xlink" x="0px" y="0px"
	 width="50px" height="50px" viewBox="0 0 50 50" enable-background="new 0 0 50 50" xml:space="preserve">
<path fill="#453CBA" d="M31.57,28.125c0,1.81-2.708,2.464-4.106,2.464s-4.106-0.654-4.106-2.464s2.708-2.464,4.106-2.464
	c0.847,0,1.694,0.154,2.464,0.5V19.27l-9.855,3.041v9.099c0,1.81-2.708,2.464-4.106,2.464s-4.106-0.654-4.106-2.464
	s2.708-2.464,4.106-2.464c0.847,0,1.694,0.154,2.464,0.5V17.038c0-0.539,0.359-1.015,0.873-1.181l10.677-3.285
	c0.115-0.039,0.23-0.052,0.358-0.052c0.681,0,1.232,0.552,1.232,1.232V28.125z"/>
</svg>
