<?xml version="1.0" encoding="utf-8"?>
<!-- Generator: Adobe Illustrator 16.0.0, SVG Export Plug-In . SVG Version: 6.00 Build 0)  -->
<!DOCTYPE svg PUBLIC "-//W3C//DTD SVG 1.1//EN" "http://www.w3.org/Graphics/SVG/1.1/DTD/svg11.dtd">
<svg version="1.1" id="Layer_1" xmlns="http://www.w3.org/2000/svg" xmlns:xlink="http://www.w3.org/1999/xlink" x="0px" y="0px"
	 width="50px" height="50px" viewBox="0 0 50 50" enable-background="new 0 0 50 50" xml:space="preserve">
<path fill="#453CBA" d="M28.567,17.617c0.18-0.039,0.359-0.052,0.539-0.052c1.693,0,3.08,1.386,3.08,3.08v0.218
	c1.783-0.103,3.285,1.271,3.285,3.067v6.391c0,0.359-0.039,0.719-0.104,1.064l-0.975,5.185c-0.244,1.36-1.438,2.349-2.823,2.349
	h-8.829c-1.026,0-2.015-0.5-2.631-1.309l-4.928-6.57c-0.423-0.565-0.654-1.271-0.654-1.977c0-1.81,1.463-3.285,3.285-3.285
	c0.539,0,1.193,0.128,1.643,0.437v-5.569c0-1.694,1.386-3.08,3.08-3.08c0.18,0,0.359,0.013,0.539,0.052
	c0.525-1.04,1.591-1.694,2.746-1.694C26.976,15.922,28.041,16.577,28.567,17.617z M24.384,19.002v8.418h-0.41v-6.775
	c0-0.796-0.643-1.438-1.438-1.438c-0.796,0-1.438,0.642-1.438,1.438v6.775v3.285l-1.977-2.631c-0.308-0.41-0.795-0.654-1.309-0.654
	c-0.911,0-1.643,0.744-1.643,1.643c0,0.359,0.115,0.706,0.334,0.988l4.928,6.57c0.308,0.41,0.795,0.654,1.309,0.654h8.829
	c0.59,0,1.104-0.424,1.219-1.001l0.976-5.197c0.038-0.244,0.064-0.5,0.064-0.757V23.93c0-0.796-0.643-1.438-1.438-1.438
	c-0.796,0-1.438,0.642-1.438,1.438v3.49h-0.41v-6.775c0-0.796-0.643-1.438-1.438-1.438c-0.796,0-1.438,0.642-1.438,1.438v6.775
	h-0.41v-8.418c0-0.796-0.643-1.438-1.438-1.438C25.025,17.565,24.384,18.207,24.384,19.002z"/>
</svg>
