<?xml version="1.0" encoding="iso-8859-1"?>
<!-- Generator: Adobe Illustrator 18.1.1, SVG Export Plug-In . SVG Version: 6.00 Build 0)  -->
<svg version="1.1" id="Capa_1" xmlns="http://www.w3.org/2000/svg" xmlns:xlink="http://www.w3.org/1999/xlink" x="0px" y="0px"
	 viewBox="0 0 492 492" style="enable-background:new 0 0 492 492;" xml:space="preserve">
<g>
	<g>
		<path style="fill:#010002;" d="M76.5,213h36v230h54V246h53v197h54V246h53v197h54V213h35c5.337,0,9.67-1.5,13-4.5
			c3.333-3,5-6.833,5-11.5c0-5.335-2.333-9.669-7-13v-1h-1l-170-88V69c10,4.668,25.167,5.335,45.5,2
			c20.333-3.333,37.833-2.333,52.5,3V17c-14-5.333-31.5-6.333-52.5-3s-36.167,2.667-45.5-2V8c0-5.333-3-8-9-8s-9,2.667-9,8v87
			l-170,88h-1v1c-5.333,3.333-8,7.667-8,13c0,4.667,1.833,8.5,5.5,11.5C67.667,211.5,71.833,213,76.5,213z"/>
		<polygon style="fill:#010002;" points="94.5,459 58.5,492 433.5,492 398.5,459 		"/>
	</g>
</g>
<g>
</g>
<g>
</g>
<g>
</g>
<g>
</g>
<g>
</g>
<g>
</g>
<g>
</g>
<g>
</g>
<g>
</g>
<g>
</g>
<g>
</g>
<g>
</g>
<g>
</g>
<g>
</g>
<g>
</g>
</svg>
