<?xml version="1.0" encoding="iso-8859-1"?>
<!-- Generator: Adobe Illustrator 16.0.0, SVG Export Plug-In . SVG Version: 6.00 Build 0)  -->
<!DOCTYPE svg PUBLIC "-//W3C//DTD SVG 1.1//EN" "http://www.w3.org/Graphics/SVG/1.1/DTD/svg11.dtd">
<svg version="1.1" id="Capa_1" xmlns="http://www.w3.org/2000/svg" xmlns:xlink="http://www.w3.org/1999/xlink" x="0px" y="0px"
	 width="60.272px" height="60.272px" viewBox="0 0 60.272 60.272" style="enable-background:new 0 0 60.272 60.272;"
	 xml:space="preserve">
<g>
	<polygon points="31.577,1.863 44.039,10.002 44.039,58.579 31.577,58.579 	"/>
	<path d="M45.015,36.875v21.449h15.258V41.749L45.015,36.875z M51.457,53.661l-4.662-1.357V48.28l4.662,1.692V53.661z
		 M51.457,46.624l-4.662-1.358v-4.022l4.662,1.694V46.624z M57.306,55.354l-4.664-1.355v-4.026l4.664,1.695V55.354z M57.306,48.318
		l-4.663-1.356v-4.024l4.665,1.692v3.688H57.306z"/>
	<path d="M14.75,11.527v32.208l-2.203,1.439V34.417l-1.398,0.578v-10.73L0.974,28.757V39.21L0,39.614v18.965h30.154V1.694
		L14.75,11.527z M1.907,30.804l3.434-1.589v4.132l-3.434,1.526V30.804z M2.162,37.501l3.433-1.591v4.135l-3.433,1.524V37.501z
		 M5.699,52.345l-3.433,1.528v-4.071l3.433-1.589V52.345z M5.699,46.049l-3.433,1.529v-4.071l3.433-1.588V46.049z M6.188,28.812
		l3.434-1.589v4.133l-3.434,1.525V28.812z M6.443,35.508l3.433-1.589v4.133l-3.433,1.527V35.508z M10.278,50.376l-3.434,1.527
		v-4.069l3.434-1.591V50.376z M10.278,44.081l-3.434,1.525v-4.067l3.434-1.59V44.081z M21.277,44.797l-4.749,2.973v-4.408
		l4.749-3.072V44.797z M21.277,37.349l-4.749,2.971V35.91l4.749-3.072V37.349z M21.277,29.899l-4.749,2.974v-4.411l4.749-3.074
		V29.899z M21.277,22.45l-4.749,2.97v-4.408l4.749-3.074V22.45z M21.277,14.999l-4.749,2.972v-4.409l4.749-3.073V14.999z
		 M28.313,40.395l-5.51,3.448V39.3l5.51-3.566V40.395z M28.313,32.945l-5.51,3.449v-4.544l5.51-3.568V32.945z M28.313,25.495
		l-5.51,3.449v-4.542l5.51-3.569V25.495z M28.313,18.045l-5.51,3.449v-4.543l5.51-3.568V18.045z M28.313,10.594l-5.51,3.449V9.5
		l5.51-3.568V10.594z"/>
</g>
<g>
</g>
<g>
</g>
<g>
</g>
<g>
</g>
<g>
</g>
<g>
</g>
<g>
</g>
<g>
</g>
<g>
</g>
<g>
</g>
<g>
</g>
<g>
</g>
<g>
</g>
<g>
</g>
<g>
</g>
</svg>
