<?xml version="1.0" encoding="iso-8859-1"?>
<!-- Generator: Adobe Illustrator 16.0.0, SVG Export Plug-In . SVG Version: 6.00 Build 0)  -->
<!DOCTYPE svg PUBLIC "-//W3C//DTD SVG 1.1//EN" "http://www.w3.org/Graphics/SVG/1.1/DTD/svg11.dtd">
<svg version="1.1" id="Capa_1" xmlns="http://www.w3.org/2000/svg" xmlns:xlink="http://www.w3.org/1999/xlink" x="0px" y="0px"
	 width="23.302px" height="23.303px" viewBox="0 0 23.302 23.303" style="enable-background:new 0 0 23.302 23.303;"
	 xml:space="preserve">
<g>
	<g>
		<path d="M6.467,15.585H2.012c-0.792,0-1.444,0.729-1.444,1.625v4.468c0,0.895,0.652,1.625,1.444,1.625h4.455
			c0.792,0,1.441-0.73,1.441-1.625V17.21C7.909,16.314,7.259,15.585,6.467,15.585z"/>
		<path d="M4.237,15.132c1.537,0,2.778-1.241,2.778-2.774S5.774,9.581,4.237,9.581c-1.533,0-2.772,1.242-2.772,2.774
			C1.464,13.891,2.704,15.132,4.237,15.132z"/>
		<path d="M21.291,15.585h-4.453c-0.791,0-1.441,0.729-1.441,1.625v4.468c0,0.895,0.65,1.625,1.441,1.625h4.453
			c0.795,0,1.444-0.73,1.444-1.625V17.21C22.735,16.314,22.085,15.585,21.291,15.585z"/>
		<path d="M16.289,12.357c0,1.533,1.241,2.774,2.772,2.774c1.536,0,2.778-1.241,2.778-2.774s-1.242-2.775-2.778-2.775
			C17.53,9.581,16.289,10.823,16.289,12.357z"/>
		<path d="M12.185,8.647c3.466-0.175,6.195-2.038,6.195-4.314C18.38,1.94,15.367,0,11.651,0S4.922,1.94,4.922,4.332
			c0,1.985,2.076,3.654,4.904,4.167l-1.322,2.433L12.185,8.647z"/>
	</g>
</g>
<g>
</g>
<g>
</g>
<g>
</g>
<g>
</g>
<g>
</g>
<g>
</g>
<g>
</g>
<g>
</g>
<g>
</g>
<g>
</g>
<g>
</g>
<g>
</g>
<g>
</g>
<g>
</g>
<g>
</g>
</svg>
