<?xml version="1.0" encoding="utf-8"?>
<!-- Generator: Adobe Illustrator 16.0.0, SVG Export Plug-In . SVG Version: 6.00 Build 0)  -->
<!DOCTYPE svg PUBLIC "-//W3C//DTD SVG 1.1//EN" "http://www.w3.org/Graphics/SVG/1.1/DTD/svg11.dtd">
<svg version="1.1" id="Layer_1" xmlns="http://www.w3.org/2000/svg" xmlns:xlink="http://www.w3.org/1999/xlink" x="0px" y="0px"
	 width="100px" height="100px" viewBox="0 0 100 100" enable-background="new 0 0 100 100" xml:space="preserve">
<g>
	<rect x="30.291" y="24.956" fill="#2B2B2A" width="39.418" height="50.089"/>
	<rect x="32.597" y="27.888" fill="#F4F4F4" width="34.805" height="44.224"/>
	<g>
		<path fill="#F4146F" d="M60.831,55.801v-1.591c-0.492,0.041-0.98,0.072-1.432,0.12c-1.625,0.167-3.231,0.479-4.841,0.773
			c0.692-3.871-0.21-8-1.436-11.666c-0.325-0.982-0.714-1.948-1.121-2.896c-0.333-0.783-1.406-0.296-1.461,0.392
			c-0.234,3.264-3.472,7.514-7.091,5.262c-2.405-1.499-0.5-5.593,1.073-6.901C45.3,38.65,44.19,37.55,43.42,38.19
			c-2.638,2.191-3.811,7.035-0.754,9.36c1.75,1.336,4.459,0.787,6.157-0.318c1.313-0.853,2.165-2.194,2.687-3.652
			c1.025,2.897,1.695,5.922,1.702,9.003c0.008,1.032-0.133,1.932-0.358,2.794c-0.086,0.017-0.17,0.022-0.256,0.041
			c-3.515,0.796-10.275,2.753-9.377,7.625c1.047,5.672,6.827-0.265,8.438-2.254c1.047-1.295,1.798-2.614,2.342-4.08
			c1.158-0.237,2.328-0.426,3.497-0.587C58.5,55.98,59.665,55.917,60.831,55.801z M51.125,58.929
			c-1.229,1.699-2.717,3.438-4.503,4.561c-1.999,1.251-2.273-1.315-1.48-2.683c1.028-1.778,3.529-2.614,5.362-3.205
			c0.551-0.174,1.124-0.291,1.683-0.433C51.895,57.758,51.555,58.341,51.125,58.929z"/>
	</g>
</g>
</svg>
