<?xml version="1.0" encoding="utf-8"?>
<!-- Generated by IcoMoon.io -->
<!DOCTYPE svg PUBLIC "-//W3C//DTD SVG 1.1//EN" "http://www.w3.org/Graphics/SVG/1.1/DTD/svg11.dtd">
<svg version="1.1" xmlns="http://www.w3.org/2000/svg" xmlns:xlink="http://www.w3.org/1999/xlink" width="16" height="16" viewBox="0 0 16 16">
<path fill="#" d="M15 7h-1c-0.2-3.2-2.8-5.7-6-6v-1h-1v1c-3.2 0.3-5.7 2.8-6 6h-1v1h1c0.2 3.2 2.8 5.7 6 6v1h1v-1c3.2-0.2 5.7-2.8 6-6h1v-1zM8 12.4v-2.4h-1v2.4c-2.4-0.2-4.2-2-4.4-4.4h2.4v-1h-2.4c0.2-2.4 2-4.2 4.4-4.4v2.4h1v-2.4c2.4 0.2 4.2 2.1 4.4 4.4h-2.4v1h2.4c-0.2 2.4-2 4.2-4.4 4.4z"></path>
</svg>
