<?xml version="1.0" encoding="iso-8859-1"?>
<!-- Generator: Adobe Illustrator 18.1.1, SVG Export Plug-In . SVG Version: 6.00 Build 0)  -->
<svg version="1.1" id="Capa_1" xmlns="http://www.w3.org/2000/svg" xmlns:xlink="http://www.w3.org/1999/xlink" x="0px" y="0px"
	 viewBox="0 0 27.529 27.529" style="enable-background:new 0 0 27.529 27.529;" xml:space="preserve">
<g>
	<path style="fill:#010002;" d="M23.458,16.267l-0.712-4.11l-8.713,5.195l-8.545-5.196l-0.71,4.436
		c0.003-0.006,0.01-0.012,0.017-0.019c-0.102,0.17-0.158,0.345-0.158,0.524c0,1.567,6.577,6.393,8.768,6.393
		c2.193,0,10.196-4.825,10.196-6.393C23.601,16.929,23.545,16.764,23.458,16.267z M14.101,16.434L0.711,8.32l13.427-4.282
		L27.529,8.26L14.101,16.434z M0.803,9.038L0,17.929l0.803,2.666l0.744-2.666L0.803,9.038z"/>
</g>
<g>
</g>
<g>
</g>
<g>
</g>
<g>
</g>
<g>
</g>
<g>
</g>
<g>
</g>
<g>
</g>
<g>
</g>
<g>
</g>
<g>
</g>
<g>
</g>
<g>
</g>
<g>
</g>
<g>
</g>
</svg>
