<?xml version="1.0" encoding="utf-8"?>
<!-- Generator: Adobe Illustrator 16.0.0, SVG Export Plug-In . SVG Version: 6.00 Build 0)  -->
<!DOCTYPE svg PUBLIC "-//W3C//DTD SVG 1.1//EN" "http://www.w3.org/Graphics/SVG/1.1/DTD/svg11.dtd">
<svg version="1.1" id="Layer_1" xmlns="http://www.w3.org/2000/svg" xmlns:xlink="http://www.w3.org/1999/xlink" x="0px" y="0px"
	 width="100px" height="100px" viewBox="0 0 100 100" enable-background="new 0 0 100 100" xml:space="preserve">
<g>
	<rect x="30.293" y="30.899" fill="#2D041E" width="35.61" height="33.313"/>
	<g>
		<polygon fill="#AF0B4E" points="60.676,63.543 53.704,63.543 50.218,31.731 57.189,31.731 		"/>
		<polygon fill="#A30C51" points="65.903,63.543 58.933,63.543 55.446,31.731 62.417,31.731 		"/>
		<polygon fill="#8E0C4D" points="72.071,63.543 65.099,63.543 61.614,31.731 68.585,31.731 		"/>
		<polygon fill="#7A0B48" points="78.239,63.543 71.267,63.543 67.78,31.731 74.753,31.731 		"/>
		<polygon fill="#AF0B4E" points="39.759,63.543 46.731,63.543 50.218,31.731 43.247,31.731 		"/>
		<polygon fill="#A30C51" points="34.531,63.543 41.503,63.543 44.989,31.731 38.018,31.731 		"/>
		<polygon fill="#8E0C4D" points="28.364,63.543 35.336,63.543 38.822,31.731 31.851,31.731 		"/>
		<polygon fill="#7A0B48" points="22.196,63.543 29.168,63.543 32.654,31.731 25.683,31.731 		"/>
	</g>
	<rect x="23.991" y="29.492" fill="#60083C" width="52.283" height="2.815"/>
	<rect x="52.536" y="62.874" fill="#60083C" width="26.143" height="1.339"/>
	<rect x="21.46" y="62.874" fill="#60083C" width="26.143" height="1.339"/>
	<polygon fill="#60042A" points="84.604,67.162 15.396,67.162 21.485,64.212 78.665,64.212 	"/>
	<rect x="15.396" y="67.162" fill="#541B35" width="69.209" height="3.347"/>
</g>
</svg>
