<?xml version="1.0" encoding="iso-8859-1"?>
<!-- Generator: Adobe Illustrator 16.0.0, SVG Export Plug-In . SVG Version: 6.00 Build 0)  -->
<!DOCTYPE svg PUBLIC "-//W3C//DTD SVG 1.1//EN" "http://www.w3.org/Graphics/SVG/1.1/DTD/svg11.dtd">
<svg version="1.1" id="Capa_1" xmlns="http://www.w3.org/2000/svg" xmlns:xlink="http://www.w3.org/1999/xlink" x="0px" y="0px"
	 width="31.927px" height="31.927px" viewBox="0 0 31.927 31.927" style="enable-background:new 0 0 31.927 31.927;"
	 xml:space="preserve">
<g>
	<g>
		<circle cx="6.276" cy="2.984" r="2.984"/>
		<path d="M14.423,12.402c-0.301-0.839-1.225-1.276-2.064-0.975c-1.349,0.484-3.19,0.896-4.318,0.123
			c-0.511-0.351-0.828-0.922-1.02-1.472C7.371,8.839,6.79,7.492,5.588,6.92C4.246,6.281,2.641,6.85,2.003,8.192
			c-0.158,0.331-1.542,3.418-1.542,9.632c0,0.736,0.297,1.404,0.779,1.892l0.439,10.659c0.036,0.814,0.682,1.496,1.514,1.548
			c0.891,0.056,1.658-0.621,1.714-1.513l0.716-11.523c0.141-0.324,0.219-0.686,0.219-1.062c0-1.467,0.089-2.706,0.216-3.727
			c0.041,0.03,0.083,0.061,0.125,0.091c0.977,0.681,2.139,1.022,3.474,1.022c1.139,0,2.406-0.249,3.792-0.746
			C14.288,14.165,14.724,13.241,14.423,12.402z"/>
		<circle cx="25.65" cy="2.984" r="2.984"/>
		<path d="M29.922,8.192C29.283,6.85,27.679,6.28,26.337,6.92c-1.202,0.572-1.783,1.919-1.433,3.158
			c-0.191,0.55-0.508,1.121-1.021,1.472c-1.127,0.774-2.969,0.361-4.316-0.123c-0.84-0.301-1.765,0.136-2.064,0.975
			c-0.3,0.839,0.136,1.763,0.975,2.064c1.387,0.497,2.652,0.746,3.793,0.746c1.334,0,2.496-0.341,3.476-1.022
			c0.042-0.03,0.084-0.061,0.125-0.091c0.126,1.021,0.216,2.259,0.216,3.726c0,0.379,0.078,0.738,0.219,1.063l0.717,11.523
			c0.055,0.892,0.821,1.567,1.713,1.513c0.832-0.052,1.479-0.732,1.515-1.548l0.438-10.659c0.48-0.486,0.778-1.154,0.778-1.893
			C31.464,11.61,30.08,8.523,29.922,8.192z"/>
		<path d="M16.483,19.453c-0.099-0.104-0.25-0.137-0.382-0.08c-0.131,0.055-0.216,0.184-0.214,0.328l0.023,1.127
			c0,0-1.697,0.738-2.735-0.502c-0.263-0.314-0.466-0.646-0.621-0.961c-0.111-0.229-0.355-0.354-0.603-0.314
			c-0.248,0.04-0.44,0.236-0.475,0.486c-0.132,0.945-0.079,2.104,0.569,3.15c1.412,2.275,3.957,2.68,3.957,2.68l0.02,0.973
			c0.003,0.137,0.085,0.259,0.21,0.312c0.125,0.055,0.271,0.03,0.371-0.063l2.801-2.571c0.203-0.188,0.322-0.447,0.332-0.724
			c0.008-0.274-0.096-0.545-0.285-0.743L16.483,19.453z"/>
		<path d="M14.668,8.46c0.099,0.104,0.251,0.135,0.383,0.08c0.132-0.054,0.217-0.184,0.214-0.327l-0.023-1.127
			c0,0,1.698-0.74,2.737,0.501c0.262,0.314,0.465,0.645,0.621,0.962c0.109,0.225,0.354,0.352,0.602,0.313
			c0.248-0.04,0.441-0.237,0.476-0.485c0.134-0.946,0.079-2.104-0.567-3.15c-1.412-2.278-3.958-2.682-3.958-2.682l-0.02-0.972
			c-0.002-0.137-0.085-0.259-0.21-0.312c-0.125-0.053-0.271-0.029-0.371,0.063l-2.799,2.572c-0.203,0.187-0.323,0.448-0.332,0.725
			c-0.009,0.276,0.094,0.544,0.285,0.744L14.668,8.46z"/>
	</g>
</g>
<g>
</g>
<g>
</g>
<g>
</g>
<g>
</g>
<g>
</g>
<g>
</g>
<g>
</g>
<g>
</g>
<g>
</g>
<g>
</g>
<g>
</g>
<g>
</g>
<g>
</g>
<g>
</g>
<g>
</g>
</svg>
