<?xml version="1.0" encoding="iso-8859-1"?>
<!-- Generator: Adobe Illustrator 18.1.1, SVG Export Plug-In . SVG Version: 6.00 Build 0)  -->
<svg version="1.1" id="Capa_1" xmlns="http://www.w3.org/2000/svg" xmlns:xlink="http://www.w3.org/1999/xlink" x="0px" y="0px"
	 viewBox="0 0 25.999 25.999" style="enable-background:new 0 0 25.999 25.999;" xml:space="preserve">
<g>
	<g>
		<path style="fill:#010002;" d="M12.949,4.942c-4.445,0-8.059,3.615-8.059,8.059c0,4.441,3.614,8.057,8.059,8.057
			c4.441,0,8.059-3.616,8.059-8.056C21.008,8.557,17.393,4.942,12.949,4.942z M12.949,20.358c-4.058,0-7.357-3.299-7.357-7.356
			S8.89,5.64,12.949,5.64s7.357,3.305,7.357,7.362S17.008,20.358,12.949,20.358z M19.79,13.002c0,3.775-3.063,6.838-6.84,6.838
			c-3.778,0-6.841-3.064-6.841-6.838c0-3.779,3.064-6.842,6.841-6.842C16.727,6.159,19.79,9.223,19.79,13.002z M4.228,5.807
			L4.23,9.782H4.224c-0.04,1.268-1.43,1.752-1.43,1.752v2.551h0.002l-0.002,5.866c0,0-0.562,0.726-1.29,0v-8.416h0.017
			c-0.848-0.361-1.475-0.486-1.515-1.752H0V5.807l0.637-0.003l0.31,3.846h0.752l0.095-3.925h0.613L2.481,9.65h0.882l0.203-3.843
			L4.228,5.807L4.228,5.807z M25.803,12.575h-1.559v7.885h-1.801V5.542h1.801C24.245,5.541,26.698,8.654,25.803,12.575z"/>
	</g>
</g>
<g>
</g>
<g>
</g>
<g>
</g>
<g>
</g>
<g>
</g>
<g>
</g>
<g>
</g>
<g>
</g>
<g>
</g>
<g>
</g>
<g>
</g>
<g>
</g>
<g>
</g>
<g>
</g>
<g>
</g>
</svg>
