<?xml version="1.0" encoding="utf-8"?>
<!-- Generator: Adobe Illustrator 16.0.0, SVG Export Plug-In . SVG Version: 6.00 Build 0)  -->
<!DOCTYPE svg PUBLIC "-//W3C//DTD SVG 1.1//EN" "http://www.w3.org/Graphics/SVG/1.1/DTD/svg11.dtd">
<svg version="1.1" id="Layer_1" xmlns="http://www.w3.org/2000/svg" xmlns:xlink="http://www.w3.org/1999/xlink" x="0px" y="0px"
	 width="100px" height="100px" viewBox="0 0 100 100" enable-background="new 0 0 100 100" xml:space="preserve">
<g>
	<path fill="#8E8B16" d="M68.796,50.001c0,10.38-8.417,18.794-18.798,18.794c-10.378,0-18.794-8.415-18.794-18.794
		c0-10.383,8.416-18.797,18.794-18.797C60.379,31.204,68.796,39.619,68.796,50.001z"/>
	<path fill="#EDED1D" d="M66.315,50.001c0,9.012-7.303,16.317-16.317,16.317c-9.011,0-16.315-7.306-16.315-16.317
		c0-9.015,7.305-16.317,16.315-16.317C59.013,33.684,66.315,40.987,66.315,50.001z"/>
	<g>
		<path fill="#8E8B16" d="M50.898,43.281c0.696,0.026,1.411,0.146,2.145,0.369c0.733,0.22,1.387,0.56,1.958,1.026
			c-0.597,0.683-1.187,1.351-1.773,1.997c-0.308-0.306-0.675-0.542-1.103-0.714c-0.427-0.171-0.835-0.263-1.227-0.274v2.931
			c0.477,0.148,0.96,0.314,1.449,0.494c0.485,0.186,0.934,0.429,1.337,0.734c0.402,0.306,0.733,0.68,0.989,1.12
			c0.256,0.437,0.385,0.989,0.385,1.648c0,0.672-0.118,1.254-0.355,1.751c-0.24,0.495-0.558,0.906-0.955,1.237
			c-0.395,0.329-0.85,0.58-1.356,0.751c-0.506,0.168-1.027,0.263-1.567,0.274v1.34h-1.356v-1.34c-0.794-0.023-1.595-0.174-2.4-0.448
			c-0.806-0.277-1.518-0.689-2.126-1.237c0.317-0.332,0.639-0.663,0.962-1c0.324-0.337,0.646-0.674,0.961-1.017
			c0.161,0.183,0.349,0.351,0.568,0.503c0.22,0.154,0.447,0.286,0.679,0.395c0.234,0.111,0.466,0.2,0.696,0.265
			c0.231,0.069,0.451,0.103,0.66,0.103v-3.209c-0.526-0.148-1.029-0.311-1.511-0.494c-0.484-0.183-0.91-0.423-1.274-0.717
			c-0.367-0.292-0.66-0.649-0.88-1.071c-0.221-0.42-0.33-0.938-0.33-1.549c0-0.597,0.121-1.134,0.365-1.603
			c0.243-0.472,0.561-0.869,0.955-1.194c0.392-0.323,0.828-0.575,1.318-0.752c0.487-0.177,0.972-0.277,1.447-0.3v-1.266h1.34V43.281
			z M49.559,45.647c-0.328,0.038-0.625,0.163-0.889,0.375c-0.262,0.217-0.395,0.523-0.395,0.925c0,0.392,0.117,0.692,0.35,0.9
			c0.233,0.208,0.545,0.36,0.934,0.457V45.647z M50.824,54.207c0.416-0.025,0.744-0.16,0.983-0.411
			c0.233-0.251,0.355-0.592,0.355-1.017c0-0.429-0.124-0.749-0.376-0.963c-0.25-0.214-0.571-0.383-0.963-0.506V54.207z"/>
	</g>
</g>
</svg>
