<?xml version="1.0" encoding="iso-8859-1"?>
<!-- Generator: Adobe Illustrator 17.1.0, SVG Export Plug-In . SVG Version: 6.00 Build 0)  -->
<!DOCTYPE svg PUBLIC "-//W3C//DTD SVG 1.1//EN" "http://www.w3.org/Graphics/SVG/1.1/DTD/svg11.dtd">
<svg version="1.1" id="Capa_1" xmlns="http://www.w3.org/2000/svg" xmlns:xlink="http://www.w3.org/1999/xlink" x="0px" y="0px"
	 viewBox="0 0 207.062 207.062" style="enable-background:new 0 0 207.062 207.062;" xml:space="preserve">
<path d="M206.324,44.826c-0.635-0.629-1.556-0.875-2.417-0.638l-41.751,11.354c-0.862,0.234-1.533,0.91-1.761,1.774
	c-0.228,0.863,0.022,1.783,0.656,2.412l7.061,7.009l-6.455,6.48c-6.772-4.53-14.451-7.603-22.501-8.977
	c-2.594-6.675-6.465-12.976-11.655-18.511c-10.871-11.594-26.224-18.242-42.123-18.242c-14.717,0-28.737,5.546-39.477,15.617
	c-20.297,19.031-23.75,49.395-9.757,72.247l-7.971,7.474l-9.693-10.319c-0.946-1.007-2.529-1.056-3.534-0.11L1.534,124.995
	c-0.483,0.454-0.767,1.081-0.788,1.744c-0.021,0.663,0.223,1.307,0.677,1.79l9.679,10.303L0.79,148.502
	c-1.007,0.944-1.058,2.526-0.114,3.533l12.586,13.424c0.454,0.483,1.081,0.768,1.743,0.789c0.027,0.001,0.054,0.001,0.081,0.001
	c0.634,0,1.246-0.241,1.71-0.677l10.328-9.684l9.693,10.319c0.492,0.523,1.157,0.788,1.823,0.788c0.614,0,1.229-0.225,1.711-0.678
	l13.412-12.599c0.483-0.454,0.767-1.081,0.788-1.744c0.021-0.663-0.223-1.307-0.677-1.79l-9.679-10.303l7.968-7.471
	c6.937,4.87,14.896,8.162,23.254,9.64c2.866,7.687,7.372,14.735,13.357,20.697c10.895,10.853,25.363,16.828,40.74,16.828
	c15.463,0,29.989-6.033,40.902-16.988c10.882-10.925,16.859-25.434,16.829-40.854c0-0.195-0.013-0.388-0.015-0.583
	c0.011-11.216-3.173-21.979-9.161-31.246l6.654-6.68l7.038,6.986c0.475,0.471,1.11,0.726,1.761,0.726
	c0.219,0,0.439-0.028,0.656-0.088c0.862-0.234,1.533-0.91,1.761-1.774l11.042-41.835C207.208,46.375,206.958,45.455,206.324,44.826z
	 M156.006,149.388c-7.206,6.756-16.61,10.478-26.481,10.478c-10.825,0-20.861-4.347-28.261-12.238
	c-1.71-1.824-3.201-3.775-4.49-5.815c10.461-2.093,20.176-7.051,28.103-14.484c12.007-11.259,18.104-26.483,18.198-41.771
	c5.108,1.906,9.797,4.89,13.773,8.85c7.224,7.195,11.251,16.739,11.386,26.916c-0.002,0.353,0.003,0.704-0.008,1.058
	C167.892,132.721,163.552,142.311,156.006,149.388z M90.82,120.403c0.356-9.776,4.314-18.919,11.256-25.888
	c6.018-6.042,13.677-9.847,21.976-11.011c0.475,10.899-3.609,21.936-12.172,29.966c-5.857,5.492-13.167,8.978-21,10.09
	C90.814,122.508,90.8,121.455,90.82,120.403z M57.137,111.707c-14.607-15.578-13.817-40.136,1.761-54.743
	c7.206-6.756,16.61-10.477,26.481-10.477c10.825,0,20.862,4.346,28.262,12.238c1.71,1.824,3.201,3.774,4.49,5.814
	c-10.461,2.093-20.176,7.051-28.102,14.484C78.536,89.8,72.452,104.209,71.868,118.83c-0.006,0.122-0.015,0.242-0.02,0.364
	c-0.003,0.098-0.004,0.195-0.007,0.292c-0.027,0.674-0.042,1.351-0.045,2.029C66.294,119.462,61.299,116.145,57.137,111.707z"/>
<g>
</g>
<g>
</g>
<g>
</g>
<g>
</g>
<g>
</g>
<g>
</g>
<g>
</g>
<g>
</g>
<g>
</g>
<g>
</g>
<g>
</g>
<g>
</g>
<g>
</g>
<g>
</g>
<g>
</g>
</svg>
