<?xml version="1.0" encoding="iso-8859-1"?>
<!-- Generator: Adobe Illustrator 16.0.0, SVG Export Plug-In . SVG Version: 6.00 Build 0)  -->
<!DOCTYPE svg PUBLIC "-//W3C//DTD SVG 1.1//EN" "http://www.w3.org/Graphics/SVG/1.1/DTD/svg11.dtd">
<svg version="1.1" id="Capa_1" xmlns="http://www.w3.org/2000/svg" xmlns:xlink="http://www.w3.org/1999/xlink" x="0px" y="0px"
	 width="124.915px" height="124.915px" viewBox="0 0 124.915 124.915" style="enable-background:new 0 0 124.915 124.915;"
	 xml:space="preserve">
<g>
	<g>
		<path d="M63.643,31.73l-1.797,1.641l-2.37-2.232c-0.492-0.083-0.974-0.188-1.445-0.323c-0.979,0.444-2.146,1.049-3.352,1.761
			c0.088-0.519,0.084-1.044-0.019-1.555c0.536-0.312,1.064-0.6,1.581-0.872c-2.766-1.265-5.006-3.469-6.324-6.207
			c-0.729,0.444-1.444,0.897-2.126,1.359c-0.998-0.572-1.959-1.117-2.716-1.545c-1.275,2.762-3.486,4.996-6.229,6.303
			c2.245,1.167,7.706,4.193,9.223,5.264c0.332,0.232,0.69,0.393,1.057,0.52v22.12c0,1.9,0.305,3.709,0.875,5.36
			c-0.016,0.175-0.027,0.353-0.027,0.533v4.967h0.033c-0.002,0.072-0.021,0.14-0.021,0.212l0.002,43.685
			c0,2.979,2.414,5.393,5.392,5.393s5.391-2.413,5.391-5.393L60.77,69.036c0-0.073-0.019-0.14-0.021-0.212h0.81
			c-0.002,0.072-0.021,0.139-0.021,0.211l-0.003,43.686c0,2.979,2.414,5.393,5.391,5.393h0.001c2.977,0,5.391-2.413,5.391-5.391
			l0.003-43.686c0-0.073-0.019-0.141-0.021-0.212h0.062l0.005-5.644c0,0,0.953-1.279,0.953-5.911c0-2.487,0.253-11.765,0.253-11.765
			l0.025-10.144c-0.057-0.028-7.717-4.226-7.717-4.226L63.643,31.73z"/>
		<path d="M35.746,31.466l-2.37,1.817l-1.797-1.642c-3.926,1.79-8.646,4.019-8.71,4.05c-0.686,0.324-1.418,0.488-2.172,0.488
			c-0.835,0-1.641-0.219-2.359-0.596L18.321,35.6c-4.541-3.644-8.328-9.951-9.655-12.667c-1.1-2.266-3.83-3.21-6.096-2.11
			c-2.267,1.101-3.211,3.831-2.11,6.096c0.804,1.657,8.181,16.282,19.31,19.766c0.641,0.201,1.285,0.349,1.929,0.469
			c0.073,2.804,0.207,8.216,0.207,10.031c0,4.631,0.954,5.909,0.954,5.909l0.004,5.646h0.083c-0.002,0.073-0.021,0.143-0.021,0.217
			l0.001,43.687c0,2.978,2.414,5.392,5.392,5.392s5.391-2.415,5.391-5.394l-0.001-43.685c0-0.074-0.019-0.144-0.022-0.217h0.812
			c-0.003,0.073-0.022,0.143-0.022,0.217l-0.003,43.685c-0.001,2.979,2.413,5.393,5.391,5.394c2.978,0,5.392-2.414,5.392-5.392
			V68.957c0-0.074-0.019-0.143-0.021-0.217h0.013v-4.967c0-0.181-0.011-0.358-0.026-0.534c0.57-1.651,0.875-3.461,0.875-5.36V35.343
			c-1.938,0.156-7.776-4.081-8.493-4.407C37.132,31.073,36.236,31.385,35.746,31.466z"/>
		<path d="M20.55,34.73c0.607,0,1.225-0.131,1.809-0.409c0.06-0.028,3.843-1.815,7.454-3.474c-3.227-0.896-5.945-3.004-7.643-5.806
			c-1.876,0.876-3.286,1.542-3.435,1.613c-2.118,1.001-3.023,3.528-2.024,5.646C17.436,33.832,18.961,34.73,20.55,34.73z"/>
		<circle cx="61.848" cy="18.55" r="11.751"/>
		<circle cx="33.508" cy="18.55" r="11.751"/>
		<path d="M93.65,30.79c3.648,1.675,7.518,3.503,7.579,3.531c0.586,0.277,1.203,0.407,1.812,0.407c1.587,0,3.109-0.896,3.834-2.429
			c1.001-2.117,0.097-4.646-2.021-5.646c-0.159-0.075-1.692-0.8-3.706-1.739C99.494,27.717,96.829,29.847,93.65,30.79z"/>
		<circle cx="90.188" cy="18.55" r="11.751"/>
		<path d="M122.35,19.903c-2.262-1.104-4.993-0.162-6.099,2.1c-1.461,2.991-5.896,10.324-11.039,13.674
			c-0.715,0.374-1.515,0.59-2.347,0.59c-0.755,0-1.487-0.165-2.173-0.488c-0.063-0.031-4.782-2.26-8.709-4.049l-1.797,1.641
			l-2.37-2.232c-0.491-0.083-0.975-0.188-1.444-0.323c-0.979,0.444-2.146,1.049-3.353,1.761c0.089-0.519,0.084-1.044-0.019-1.555
			c0.536-0.312,1.062-0.6,1.581-0.872c-2.767-1.265-5.007-3.469-6.324-6.207c-0.729,0.444-1.444,0.897-2.126,1.359
			c-0.998-0.572-1.959-1.117-2.716-1.545c-1.275,2.762-3.487,4.996-6.229,6.303c2.244,1.167,7.706,4.193,9.223,5.264
			c0.332,0.232,0.689,0.393,1.056,0.52v22.12c0,1.9,0.306,3.709,0.876,5.36c-0.016,0.175-0.027,0.353-0.027,0.533v4.967h0.033
			c-0.002,0.072-0.021,0.14-0.021,0.212l0.002,43.685c0,2.979,2.414,5.393,5.392,5.393c2.979,0,5.391-2.413,5.391-5.393
			l-0.004-43.682c0-0.073-0.019-0.141-0.021-0.212h0.811c-0.002,0.071-0.021,0.139-0.021,0.211l-0.003,43.687
			c0,2.978,2.414,5.392,5.391,5.392h0.001c2.978,0,5.392-2.413,5.392-5.39l0.003-43.687c0-0.073-0.02-0.14-0.021-0.212h0.062
			l0.004-5.645c0,0,0.953-1.277,0.953-5.91c0-2.011,0.164-8.457,0.228-10.853c0.543-0.054,1.087-0.138,1.63-0.249l0.042,0.018
			c0.005-0.01,0.012-0.019,0.019-0.029c0.523-0.109,1.049-0.235,1.571-0.399c11.128-3.484,18.505-18.108,19.31-19.766
			C125.556,23.731,124.611,21.006,122.35,19.903z"/>
	</g>
</g>
<g>
</g>
<g>
</g>
<g>
</g>
<g>
</g>
<g>
</g>
<g>
</g>
<g>
</g>
<g>
</g>
<g>
</g>
<g>
</g>
<g>
</g>
<g>
</g>
<g>
</g>
<g>
</g>
<g>
</g>
</svg>
