<?xml version="1.0" encoding="iso-8859-1"?>
<!-- Generator: Adobe Illustrator 18.1.1, SVG Export Plug-In . SVG Version: 6.00 Build 0)  -->
<svg version="1.1" id="Capa_1" xmlns="http://www.w3.org/2000/svg" xmlns:xlink="http://www.w3.org/1999/xlink" x="0px" y="0px"
	 viewBox="0 0 23.302 23.302" style="enable-background:new 0 0 23.302 23.302;" xml:space="preserve">
<g>
	<g>
		<circle style="fill:#010002;" cx="11.608" cy="4.244" r="2.721"/>
		<path style="fill:#010002;" d="M21.133,11.73l-2.536-0.529c-0.864-0.181-1.717,0.215-2.168,0.919
			c-0.438-0.225-0.909-0.419-1.41-0.58v-1.508c0.001-1.141-0.933-2.074-2.07-2.074h-2.593c-1.143,0-2.073,0.933-2.073,2.074v1.516
			C7.787,11.706,7.321,11.9,6.88,12.126c-0.451-0.707-1.305-1.106-2.17-0.925L2.172,11.73c-1.114,0.233-1.837,1.338-1.604,2.456
			l0.637,3.043c0.231,1.115,1.337,1.838,2.452,1.605l0.803-0.168c0.402,0.594,0.958,1.139,1.67,1.605
			c1.483,0.972,3.442,1.508,5.521,1.508c3.181,0,5.921-1.279,7.183-3.116l0.816,0.171c1.114,0.232,2.22-0.49,2.451-1.605
			l0.638-3.043C22.971,13.068,22.248,11.963,21.133,11.73z M11.65,20.74c-1.878,0-3.638-0.473-4.951-1.338
			c-0.45-0.294-0.823-0.621-1.122-0.971l0.615-0.129c1.116-0.232,1.839-1.337,1.606-2.453l-0.571-2.736
			c0.333-0.179,0.683-0.336,1.055-0.47v0.499c0,1.139,0.932,2.072,2.073,2.072h2.593c1.138,0,2.07-0.934,2.07-2.072v-0.525
			c0.379,0.135,0.735,0.29,1.065,0.466l-0.579,2.767c-0.231,1.116,0.491,2.221,1.607,2.453l0.621,0.13
			C16.574,19.804,14.283,20.74,11.65,20.74z"/>
		<circle style="fill:#010002;" cx="20.581" cy="7.821" r="2.721"/>
		<path style="fill:#010002;" d="M3.279,10.485c1.472-0.308,2.412-1.751,2.108-3.222c-0.31-1.47-1.75-2.414-3.223-2.106
			c-1.47,0.307-2.414,1.749-2.106,3.22C0.365,9.849,1.807,10.792,3.279,10.485z"/>
	</g>
</g>
<g>
</g>
<g>
</g>
<g>
</g>
<g>
</g>
<g>
</g>
<g>
</g>
<g>
</g>
<g>
</g>
<g>
</g>
<g>
</g>
<g>
</g>
<g>
</g>
<g>
</g>
<g>
</g>
<g>
</g>
</svg>
