<?xml version="1.0" encoding="iso-8859-1"?>
<!-- Generator: Adobe Illustrator 16.0.0, SVG Export Plug-In . SVG Version: 6.00 Build 0)  -->
<!DOCTYPE svg PUBLIC "-//W3C//DTD SVG 1.1//EN" "http://www.w3.org/Graphics/SVG/1.1/DTD/svg11.dtd">
<svg version="1.1" id="Capa_1" xmlns="http://www.w3.org/2000/svg" xmlns:xlink="http://www.w3.org/1999/xlink" x="0px" y="0px"
	 width="920.828px" height="920.828px" viewBox="0 0 920.828 920.828" style="enable-background:new 0 0 920.828 920.828;"
	 xml:space="preserve">
<g>
	<g>
		<path d="M401.867,239.564v-42.1c-34.399-33.4-57.699-77.8-97.1-105.9c-44.8-31.9-99.8-43.4-153.8-35.4
			c-46.4,6.9-98.7,17.9-144.2,1.2c-4.1-1.5-8,2.5-6.4,6.5c13.8,34.9,68.7,141.6,220,153.3
			C332.567,225.864,377.867,232.164,401.867,239.564z"/>
		<path d="M913.968,57.464c-45.5,16.7-97.8,5.7-144.2-1.2c-54-8-109,3.5-153.8,35.4c-39.4,28-62.7,72.4-97.101,105.9v42.1
			c24-7.4,69.301-13.8,181.5-22.5c151.2-11.7,206.101-118.4,220.101-153.2C922.067,59.964,918.067,55.964,913.968,57.464z"/>
		<path d="M419.367,157.564c5.101,4.7,11,8.6,17.5,11.3v208.4l-17.5-8.3l-17.5-8.3l-79.899-37.7h57.399c10,0,18.5-6.5,21.5-15.5
			c0.801-2.3,1.2-4.7,1.2-7.2v-22.4c0-2.5-0.399-5-1.2-7.2c-3-9-11.5-15.5-21.5-15.5h-98c-12.6,0-22.7,10.2-22.7,22.7v75.2
			c0,9,5.3,17.101,13.4,20.7l110.7,49.8l-68.3,40.8c-6.9,4.101-11.101,11.5-11.101,19.5v10.4c0,8.8,5.101,16.8,13.101,20.6
			l71.5,33.601l-46.7,26.1c-7.2,4-11.6,11.601-11.6,19.8v10.9c0,8.7,5,16.7,12.8,20.5l49.3,23.9l-44.7,31
			c-6.1,4.199-9.8,11.199-9.8,18.699v14.4c0,9.2,5.6,17.5,14.1,21l41.601,17.2l-17.2,17.1c-4.3,4.3-6.7,10-6.7,16.101l0,0
			c0,9,5.3,17.1,13.4,20.699l3.8,1.7c4.9,2.2,10.4,2.601,15.5,1.101c1.3-0.4,2.6-0.9,3.9-1.5l13.6-6.801l17.5-8.699v54.1
			c0,12.2,9.8,22,22,22h2.9c12.199,0,22-9.8,22-22v-53.9l17.5,8.7l13.6,6.7c1.2,0.6,2.5,1.1,3.9,1.5c5.1,1.5,10.6,1.1,15.5-1.1
			l3.8-1.7c8.2-3.7,13.399-11.8,13.399-20.7l0,0c0-6-2.399-11.8-6.699-16.1l-16.9-17.2l41.6-17.2c8.5-3.5,14.101-11.8,14.101-21
			v-14.5c0-7.5-3.601-14.4-9.8-18.7l-44.7-31l49.3-23.899c7.8-3.801,12.8-11.7,12.8-20.5v-10.9c0-8.2-4.399-15.8-11.6-19.8l-46.7-26
			l71.5-33.601c8-3.699,13.1-11.8,13.1-20.6v-10.4c0-8-4.199-15.399-11.1-19.5l-68.3-40.8l110.8-49.7
			c8.2-3.699,13.4-11.8,13.4-20.699v-75.2c0-12.6-10.2-22.7-22.7-22.7l-97.9-0.3c-10,0-18.5,6.5-21.5,15.5c-0.8,2.3-1.2,4.7-1.2,7.3
			v22.4c0,2.5,0.4,5,1.2,7.3c3,9,11.5,15.5,21.5,15.5l57.2,0.3l-80,37.5l-17.5,8.3l-17.5,8.3v-208.5c6.5-2.8,12.4-6.6,17.5-11.3
			c8.4-7.8,14.6-18.1,17.5-29.6c1.2-4.7,1.8-9.5,1.8-14.6c0-5-0.6-9.9-1.8-14.6c-1.5-5.9-3.8-11.5-6.9-16.6
			c-10.6-17.4-29.699-29.1-51.6-29.1s-41,11.6-51.6,29.1c-3.101,5.1-5.4,10.7-6.9,16.6c-1.2,4.7-1.8,9.5-1.8,14.6
			c0,5,0.6,9.9,1.8,14.6C404.768,139.464,410.968,149.664,419.367,157.564z M436.867,618.364l-35.199-18.8l35.199-18.8V618.364z
			 M387.867,487.165l49-24.801v49.601L387.867,487.165z M401.668,701.964l35.199-18.8v37.6L401.668,701.964z M483.768,720.764v-37.5
			l35.2,18.8L483.768,720.764z M483.768,618.364v-37.5l35.2,18.801L483.768,618.364z M532.768,487.165l-49,24.8v-49.601
			L532.768,487.165z"/>
	</g>
</g>
<g>
</g>
<g>
</g>
<g>
</g>
<g>
</g>
<g>
</g>
<g>
</g>
<g>
</g>
<g>
</g>
<g>
</g>
<g>
</g>
<g>
</g>
<g>
</g>
<g>
</g>
<g>
</g>
<g>
</g>
</svg>
