<?xml version="1.0" encoding="utf-8"?>
<!-- Generator: Adobe Illustrator 16.0.0, SVG Export Plug-In . SVG Version: 6.00 Build 0)  -->
<!DOCTYPE svg PUBLIC "-//W3C//DTD SVG 1.1//EN" "http://www.w3.org/Graphics/SVG/1.1/DTD/svg11.dtd">
<svg version="1.1" id="Layer_1" xmlns="http://www.w3.org/2000/svg" xmlns:xlink="http://www.w3.org/1999/xlink" x="0px" y="0px"
	 width="50px" height="50px" viewBox="0 0 50 50" enable-background="new 0 0 50 50" xml:space="preserve">
<g>
	<rect x="18.602" y="22.296" fill="#D39D5E" width="12.575" height="18.343"/>
	<path fill="#D39D5E" d="M32.653,20.771c0,2.332-1.891,4.224-4.224,4.224h-7.08c-2.333,0-4.224-1.892-4.224-4.224v-6.379
		c0-2.333,1.891-4.224,4.224-4.224h7.08c2.333,0,4.224,1.891,4.224,4.224V20.771z"/>
	<path fill="#C18D59" d="M27.637,10.167H21.35c-2.333,0-4.224,1.891-4.224,4.224v6.379c0,2.332,1.891,4.224,4.224,4.224h6.287
		V10.167z"/>
	<path fill="#BC7D44" d="M33.899,22.883c0,1.469-1.19,2.659-2.659,2.659h-6.502c-1.47,0-2.66-1.19-2.66-2.659l0,0
		c0-1.469,1.19-2.66,2.66-2.66h6.502C32.709,20.223,33.899,21.414,33.899,22.883L33.899,22.883z"/>
	<path fill="#D39D5E" d="M32.597,13.676c0,1.367-1.108,2.476-2.476,2.476l0,0c-1.368,0-2.477-1.108-2.477-2.476V6.659
		c0-1.367,1.108-2.476,2.477-2.476l0,0c1.367,0,2.476,1.109,2.476,2.476V13.676z"/>
	<rect x="18.602" y="27.615" fill="#302C28" width="12.575" height="3.52"/>
	<path fill="#302C28" d="M27.096,30.812c0,0.425-0.345,0.77-0.77,0.77h-2.874c-0.425,0-0.769-0.345-0.769-0.77v-2.874
		c0-0.425,0.344-0.77,0.769-0.77h2.874c0.425,0,0.77,0.345,0.77,0.77V30.812z"/>
	<path fill="#D38B50" d="M26.343,23.475c0,0.728-0.59,1.317-1.317,1.317h-0.757c-0.729,0-1.318-0.59-1.318-1.317v-0.758
		c0-0.727,0.59-1.317,1.318-1.317h0.757c0.728,0,1.317,0.59,1.317,1.317V23.475z"/>
	<path fill="#D39D5E" d="M31.177,42.191c0,2.333-1.891,4.224-4.224,4.224h-4.127c-2.334,0-4.225-1.891-4.225-4.224v-4.776
		c0-2.333,1.891-4.225,4.225-4.225h4.127c2.333,0,4.224,1.892,4.224,4.225V42.191z"/>
</g>
</svg>
