<?xml version="1.0" encoding="utf-8"?>
<!-- Generator: Adobe Illustrator 16.0.0, SVG Export Plug-In . SVG Version: 6.00 Build 0)  -->
<!DOCTYPE svg PUBLIC "-//W3C//DTD SVG 1.1//EN" "http://www.w3.org/Graphics/SVG/1.1/DTD/svg11.dtd">
<svg version="1.1" id="Layer_1" xmlns="http://www.w3.org/2000/svg" xmlns:xlink="http://www.w3.org/1999/xlink" x="0px" y="0px"
	 width="100px" height="100px" viewBox="0 0 100 100" enable-background="new 0 0 100 100" xml:space="preserve">
<g>
	<path fill="#282524" d="M65.044,39.295c-1.013-7.478-7.415-13.238-15.169-13.238c-5.866,0-10.958,3.302-13.526,8.147
		c-8.409,0.059-15.205,6.888-15.205,15.306c0,3.305,1.051,6.364,2.832,8.869c0.194,1.075,0.68,2.046,1.373,2.833
		c-0.546,1.155-0.861,2.442-0.861,3.805c0,4.932,3.999,8.927,8.927,8.927c2.901,0,5.467-1.387,7.099-3.527
		c0.577,0.19,1.191,0.294,1.833,0.294c1.599,0,3.047-0.642,4.109-1.675c1.363,0.398,2.803,0.614,4.296,0.614
		c2.202,0,4.292-0.468,6.186-1.304c2.001,0.957,4.242,1.495,6.609,1.495c8.454,0,15.311-6.854,15.311-15.31
		C78.856,46.579,72.797,40.044,65.044,39.295z"/>
	<g>
		<path fill="#1BEF20" d="M51.932,58.274c0,0.419-0.078,0.812-0.235,1.175c-0.156,0.364-0.378,0.68-0.659,0.94
			c-0.279,0.26-0.608,0.472-0.986,0.627c-0.375,0.156-0.772,0.236-1.191,0.236c-0.417,0-0.809-0.076-1.173-0.218
			c-0.367-0.149-0.684-0.357-0.957-0.628c-0.271-0.274-0.492-0.586-0.659-0.943c-0.166-0.354-0.25-0.739-0.25-1.159
			c0-0.395,0.076-0.776,0.236-1.145c0.156-0.364,0.367-0.683,0.642-0.954c0.272-0.274,0.595-0.485,0.975-0.642
			c0.371-0.16,0.77-0.236,1.187-0.236c0.419,0,0.816,0.076,1.191,0.236c0.378,0.156,0.707,0.364,0.986,0.625
			c0.281,0.264,0.503,0.576,0.659,0.939C51.854,57.497,51.932,57.878,51.932,58.274z M46.229,53.512V38.75h5.23v14.761H46.229z"/>
	</g>
</g>
</svg>
