<?xml version="1.0" encoding="utf-8"?>
<!-- Generator: Adobe Illustrator 16.0.0, SVG Export Plug-In . SVG Version: 6.00 Build 0)  -->
<!DOCTYPE svg PUBLIC "-//W3C//DTD SVG 1.1//EN" "http://www.w3.org/Graphics/SVG/1.1/DTD/svg11.dtd">
<svg version="1.1" id="Layer_1" xmlns="http://www.w3.org/2000/svg" xmlns:xlink="http://www.w3.org/1999/xlink" x="0px" y="0px"
	 width="50px" height="50px" viewBox="0 0 50 50" enable-background="new 0 0 50 50" xml:space="preserve">
<g>
	<g>
		<path fill="#F7F7F7" d="M38.114,18.96c0-8.492-6.884-15.375-15.376-15.375c-8.491,0-15.375,6.883-15.375,15.375
			c0,6.796,4.412,12.56,10.527,14.591v2.825c0,2.239,1.814,4.054,4.053,4.054h1.59c2.238,0,4.054-1.814,4.054-4.054v-2.825
			C33.702,31.52,38.114,25.756,38.114,18.96z"/>
		<path fill="#939328" d="M17.024,34.786v4.403c0,2.238,1.815,4.054,4.054,4.054h3.321c2.238,0,4.053-1.815,4.053-4.054v-4.403
			H17.024z"/>
		<path fill="#565417" d="M26.899,36.691c0,0.198-0.161,0.357-0.358,0.357h-7.735c-0.197,0-0.357-0.159-0.357-0.357l0,0
			c0-0.198,0.16-0.358,0.357-0.358h7.735C26.738,36.333,26.899,36.493,26.899,36.691L26.899,36.691z"/>
		<path fill="#565417" d="M26.899,38.666c0,0.198-0.161,0.358-0.358,0.358h-7.735c-0.197,0-0.357-0.16-0.357-0.358l0,0
			c0-0.197,0.16-0.357,0.357-0.357h7.735C26.738,38.309,26.899,38.469,26.899,38.666L26.899,38.666z"/>
		<path fill="#565417" d="M26.899,40.641c0,0.198-0.161,0.358-0.358,0.358h-7.735c-0.197,0-0.357-0.16-0.357-0.358l0,0
			c0-0.197,0.16-0.357,0.357-0.357h7.735C26.738,40.283,26.899,40.443,26.899,40.641L26.899,40.641z"/>
	</g>
	<circle fill="#EBF2F7" cx="29.81" cy="13.741" r="3.569"/>
</g>
</svg>
