<?xml version="1.0" encoding="utf-8"?>
<!-- Generator: Adobe Illustrator 16.0.0, SVG Export Plug-In . SVG Version: 6.00 Build 0)  -->
<!DOCTYPE svg PUBLIC "-//W3C//DTD SVG 1.1//EN" "http://www.w3.org/Graphics/SVG/1.1/DTD/svg11.dtd">
<svg version="1.1" id="Layer_1" xmlns="http://www.w3.org/2000/svg" xmlns:xlink="http://www.w3.org/1999/xlink" x="0px" y="0px"
	 width="100px" height="100px" viewBox="0 0 100 100" enable-background="new 0 0 100 100" xml:space="preserve">
<g>
	<g>
		<path fill="#5140CC" d="M62.374,68.575L33.705,49.687c-0.514-0.338-0.81-0.926-0.771-1.541c0.035-0.614,0.396-1.163,0.947-1.439
			l30.691-15.383c0.551-0.277,1.207-0.238,1.721,0.101c0.516,0.339,0.81,0.927,0.773,1.542l-2.025,34.271
			c-0.035,0.615-0.396,1.164-0.947,1.439C63.546,68.953,62.888,68.914,62.374,68.575z M38.095,48.45l23.682,15.604l1.672-28.311
			L38.095,48.45z"/>
	</g>
	<g>
		<circle fill="#5140CC" cx="63.322" cy="67.137" r="4.511"/>
	</g>
	<g>
		<circle fill="#5140CC" cx="65.346" cy="32.864" r="4.51"/>
	</g>
	<g>
		<circle fill="#5140CC" cx="34.653" cy="48.248" r="4.51"/>
	</g>
</g>
</svg>
