<?xml version="1.0" ?><!DOCTYPE svg  PUBLIC '-//W3C//DTD SVG 1.1//EN'  'http://www.w3.org/Graphics/SVG/1.1/DTD/svg11.dtd'><svg enable-background="new 0.464 -2.279 141.732 141.732" height="141.732px" id="Livello_1" version="1.1" viewBox="0.464 -2.279 141.732 141.732" width="141.732px" xml:space="preserve" xmlns="http://www.w3.org/2000/svg" xmlns:xlink="http://www.w3.org/1999/xlink"><g id="Livello_111"><path d="M0,137.174l34.864-28.711v-58.74L0,78.435V137.174z M70.629,77.856L36.465,49.723v58.74l34.164,28.134V77.856z    M81.893,21.947c0,6.062-4.912,10.975-10.974,10.975c-6.061,0-10.974-4.914-10.974-10.975c0-6.061,4.913-10.975,10.974-10.975   C76.98,10.973,81.893,15.887,81.893,21.947 M90.334,32.922c1.869-3.23,2.943-6.975,2.943-10.975C93.277,9.826,83.451,0,71.331,0   C59.209,0,49.383,9.826,49.383,21.947c0,5.331,1.9,10.215,5.061,14.018l16.906,24.39L88.5,35.61   c0.617-0.772,1.182-1.585,1.691-2.438l0.174-0.25H90.334z M72.27,136.399l33.631-27.694V49.967L72.27,77.662V136.399z    M142.66,137.174V78.435l-35.279-29.05v58.738L142.66,137.174z"/></g><g id="Livello_1_1_"/></svg>