<?xml version="1.0" encoding="utf-8"?>
<!-- Generator: Adobe Illustrator 16.0.0, SVG Export Plug-In . SVG Version: 6.00 Build 0)  -->
<!DOCTYPE svg PUBLIC "-//W3C//DTD SVG 1.1//EN" "http://www.w3.org/Graphics/SVG/1.1/DTD/svg11.dtd">
<svg version="1.1" id="Layer_1" xmlns="http://www.w3.org/2000/svg" xmlns:xlink="http://www.w3.org/1999/xlink" x="0px" y="0px"
	 width="100px" height="100px" viewBox="0 0 100 100" enable-background="new 0 0 100 100" xml:space="preserve">
<g>
	
		<rect x="35.32" y="31.184" transform="matrix(0.8189 -0.5739 0.5739 0.8189 -17.9313 29.5254)" fill="#282524" width="5.003" height="23.985"/>
	
		<rect x="40.548" y="36.833" transform="matrix(0.9989 0.0461 -0.0461 0.9989 2.2957 -1.9319)" fill="#282524" width="5.001" height="23.986"/>
	
		<rect x="57.214" y="32.836" transform="matrix(0.8888 0.4583 -0.4583 0.8888 25.9525 -22.9999)" fill="#282524" width="6.31" height="18.281"/>
	
		<rect x="60.812" y="30.842" transform="matrix(0.8888 0.4584 -0.4584 0.8888 22.3305 -26.2488)" fill="#282524" width="8.868" height="4.082"/>
	<rect x="23.401" y="43.177" fill="#75411A" width="26.597" height="27.786"/>
	<rect x="49.998" y="43.177" fill="#9E5C30" width="26.601" height="27.786"/>
	<path fill="#4F2B13" d="M41.659,47.69c0,0.523-0.403,0.95-0.903,0.95h-8.112c-0.498,0-0.901-0.426-0.901-0.95l0,0
		c0-0.525,0.403-0.95,0.901-0.95h8.112C41.256,46.74,41.659,47.165,41.659,47.69L41.659,47.69z"/>
	<path fill="#4F2B13" d="M68.258,47.69c0,0.523-0.402,0.95-0.9,0.95H59.24c-0.497,0-0.899-0.426-0.899-0.95l0,0
		c0-0.525,0.402-0.95,0.899-0.95h8.117C67.855,46.74,68.258,47.165,68.258,47.69L68.258,47.69z"/>
</g>
</svg>
