<?xml version="1.0" encoding="iso-8859-1"?>
<!-- Generator: Adobe Illustrator 18.1.1, SVG Export Plug-In . SVG Version: 6.00 Build 0)  -->
<svg version="1.1" id="Capa_1" xmlns="http://www.w3.org/2000/svg" xmlns:xlink="http://www.w3.org/1999/xlink" x="0px" y="0px"
	 viewBox="0 0 478.165 478.165" style="enable-background:new 0 0 478.165 478.165;" xml:space="preserve">
<g>
	<path id="DZone_1_" d="M440.748,114.172c-17.612,0-32.196,12.173-36.321,28.57L238.405,87.773
		c-0.04-11.874-9.563-21.418-21.219-21.418c-11.695,0-21.238,9.583-21.238,21.617c0,5.599,2.231,10.619,5.738,14.524L26.319,303.107
		c-2.072-0.598-4.363-1.275-6.674-1.275C8.866,301.812,0,310.897,0,321.795c0,11.157,8.866,19.983,19.645,19.983
		c7.69,0,14.425-4.523,17.652-11.117l159.289,38.233c-0.478,2.311-0.717,4.722-0.717,7.372c0,19.625,15.68,35.544,35.085,35.544
		c19.366,0,35.165-15.919,35.165-35.544c0-3.666-0.478-7.252-1.415-10.52l121.892-50.426c3.347,3.626,8.069,5.858,13.528,5.858
		c10.34,0,18.828-8.727,18.828-19.425c0-6.216-2.949-11.815-7.611-15.421l20.003-97.645c2.909,0.857,6.136,1.315,9.404,1.315
		c20.641,0.04,37.416-16.975,37.416-37.914C478.165,131.186,461.389,114.172,440.748,114.172z M229.758,105.266l74.733,91.389
		l-75.948,30.802l-4.642-119.123C226.012,107.617,227.925,106.501,229.758,105.266z M217.147,109.49l4.682,120.737l-34.627,14.046
		c-1.574-2.849-3.666-5.22-6.236-7.232l29.228-128.885C212.445,108.972,214.736,109.29,217.147,109.49z M189.632,254.453
		c0-1.375-0.06-2.71-0.299-4.025l32.754-13.249l4.124,103.762c-2.989,0.438-5.798,1.295-8.408,2.291l-34.747-73.319
		C187.042,266.069,189.632,260.57,189.632,254.453z M252.571,347.994c-5.519-4.264-12.293-6.993-19.565-7.451l-4.164-106.113
		l79.933-32.475l36.261,44.19L252.571,347.994z M313.756,199.923l91.09-36.938c1.275,4.144,3.168,7.93,5.559,11.257L348.403,242.4
		L313.756,199.923z M403.491,156.469l-94.238,38.193l-75.809-92.903c2.072-2.55,3.566-5.539,4.303-8.866l165.704,54.869
		c-0.06,1.415-0.12,2.849-0.12,4.284C403.332,153.581,403.412,155.055,403.491,156.469z M205.451,105.784
		c0.02,0.02,0.08,0.06,0.199,0.06L176.443,234.47c-2.49-1.016-5.26-1.654-8.089-1.654c-11.675,0-21.199,9.583-21.199,21.577
		c0,1.972,0.359,3.865,0.857,5.698l-115.297,46.76c-0.518-0.458-1.175-0.996-1.853-1.415L205.451,105.784z M38.99,325.939
		c0.239-1.355,0.438-2.749,0.438-4.144c0-3.367-0.897-6.694-2.51-9.484l113.723-46.183c3.865,5.738,10.42,9.782,17.732,9.782
		c3.925,0,7.471-1.255,10.52-2.889l34.328,72.482c-6.874,4.184-12.412,10.679-15.202,18.37L38.99,325.939z M262.851,361.084
		c-1.773-3.447-4.044-6.714-6.575-9.543l92.007-101.351l35.006,42.736c-1.415,2.749-2.251,5.897-2.251,8.906
		c0,3.606,0.897,6.834,2.371,9.603L262.851,361.084z M406.719,283.96c-2.211-0.857-4.264-1.315-6.595-1.315
		c-5.499,0-10.3,2.331-13.887,6.057l-34.567-42.318l62.022-68.178c3.447,3.905,7.969,6.953,12.751,9.045L406.719,283.96z"/>
</g>
<g>
</g>
<g>
</g>
<g>
</g>
<g>
</g>
<g>
</g>
<g>
</g>
<g>
</g>
<g>
</g>
<g>
</g>
<g>
</g>
<g>
</g>
<g>
</g>
<g>
</g>
<g>
</g>
<g>
</g>
</svg>
