<?xml version="1.0" encoding="iso-8859-1"?>
<!-- Generator: Adobe Illustrator 16.0.0, SVG Export Plug-In . SVG Version: 6.00 Build 0)  -->
<!DOCTYPE svg PUBLIC "-//W3C//DTD SVG 1.1//EN" "http://www.w3.org/Graphics/SVG/1.1/DTD/svg11.dtd">
<svg version="1.1" id="Capa_1" xmlns="http://www.w3.org/2000/svg" xmlns:xlink="http://www.w3.org/1999/xlink" x="0px" y="0px"
	 width="79.536px" height="79.536px" viewBox="0 0 79.536 79.536" style="enable-background:new 0 0 79.536 79.536;"
	 xml:space="preserve">
<g>
	<path style="fill:#010002;" d="M41.073,26.533H38.23V0h2.843v2.19c2.319-0.922,4.505-1.421,6.534-1.421
		c0.611,0,1.336,0.106,2.206,0.318c0.86,0.197,1.797,0.43,2.775,0.741c1.025,0.308,1.947,0.58,2.833,0.758
		c0.849,0.225,1.59,0.319,2.18,0.319c1.129,0,2.123-0.218,3.045-0.608v11.997c-1.108,0.298-2.107,0.43-3.045,0.43
		c-0.59,0-1.331-0.085-2.18-0.285c-0.881-0.213-1.802-0.456-2.822-0.779c-0.989-0.282-1.957-0.531-2.869-0.759
		c-0.9-0.197-1.678-0.298-2.272-0.298c-0.316,0-0.782,0.07-1.435,0.228c-0.663,0.146-1.347,0.35-2.051,0.601
		c-0.72,0.259-1.336,0.497-1.908,0.704c-0.414,0.148-0.72,0.187-0.991,0.233V26.533z M60.476,35.589v-6.908H19.063v6.908H6.142
		v43.947h22.939v-5.976h21.085v5.976h23.229V35.589H60.476z M26.101,64.229h-3.865l-7.674-12.417v12.422h-3.583v-19.05h3.749
		l7.788,12.712V45.185h3.586V64.229z M47.308,61.604c-0.808,0.781-1.979,1.465-3.501,2.061c-1.529,0.59-3.072,0.891-4.637,0.891
		c-1.988,0-3.738-0.409-5.217-1.248c-1.481-0.834-2.589-2.029-3.334-3.583c-0.749-1.559-1.121-3.252-1.121-5.075
		c0-1.988,0.424-3.748,1.253-5.291c0.826-1.544,2.04-2.729,3.648-3.553c1.22-0.632,2.742-0.947,4.56-0.947
		c2.358,0,4.204,0.502,5.543,1.486c1.325,0.994,2.186,2.36,2.563,4.111l-3.816,0.714c-0.271-0.932-0.774-1.667-1.522-2.216
		c-0.738-0.533-1.659-0.808-2.768-0.808c-1.675,0-3.021,0.538-4.008,1.6c-1.002,1.062-1.492,2.641-1.492,4.738
		c0,2.268,0.5,3.966,1.502,5.085c1.002,1.139,2.322,1.698,3.956,1.698c0.795,0,1.605-0.155,2.424-0.477
		c0.805-0.311,1.499-0.699,2.084-1.145v-2.418h-4.401v-3.21h8.285V61.604L47.308,61.604z M66.042,61.951
		c-1.667,1.739-3.904,2.604-6.7,2.604c-2.838,0-5.085-0.854-6.753-2.594c-1.678-1.72-2.506-4.102-2.506-7.136
		c0-1.937,0.279-3.573,0.859-4.889c0.436-0.974,1.025-1.843,1.781-2.609c0.746-0.771,1.564-1.341,2.455-1.709
		c1.19-0.513,2.558-0.761,4.111-0.761c2.801,0,5.054,0.869,6.736,2.609c1.673,1.745,2.532,4.158,2.532,7.265
		C68.559,57.809,67.72,60.211,66.042,61.951z M59.331,48.146c-1.584,0-2.868,0.549-3.832,1.626c-0.979,1.092-1.46,2.733-1.46,4.93
		c0,2.153,0.508,3.79,1.502,4.898c0.994,1.118,2.258,1.667,3.79,1.667c1.533,0,2.786-0.549,3.77-1.651
		c0.984-1.108,1.481-2.761,1.481-4.977c0-2.186-0.487-3.816-1.439-4.889C62.179,48.685,60.916,48.146,59.331,48.146z"/>
</g>
<g>
</g>
<g>
</g>
<g>
</g>
<g>
</g>
<g>
</g>
<g>
</g>
<g>
</g>
<g>
</g>
<g>
</g>
<g>
</g>
<g>
</g>
<g>
</g>
<g>
</g>
<g>
</g>
<g>
</g>
</svg>
