<?xml version="1.0" encoding="utf-8"?>
<!-- Generator: Adobe Illustrator 16.0.0, SVG Export Plug-In . SVG Version: 6.00 Build 0)  -->
<!DOCTYPE svg PUBLIC "-//W3C//DTD SVG 1.1//EN" "http://www.w3.org/Graphics/SVG/1.1/DTD/svg11.dtd">
<svg version="1.1" id="Layer_1" xmlns="http://www.w3.org/2000/svg" xmlns:xlink="http://www.w3.org/1999/xlink" x="0px" y="0px"
	 width="100px" height="100px" viewBox="0 0 100 100" enable-background="new 0 0 100 100" xml:space="preserve">
<g>
	<path fill="#126B6D" d="M52.042,48.229l5.303-10.688c0.386-0.779,0.066-1.723-0.711-2.108c-0.776-0.386-1.724-0.069-2.108,0.711
		l-5.302,10.688L52.042,48.229z"/>
	<g>
		<polygon fill="#159690" points="71.767,72.446 28.233,72.446 21.803,46.55 78.197,46.55 		"/>
	</g>
	<g>
		<polygon fill="#1CB7B3" points="68.946,70.769 31.054,70.769 25.456,48.229 74.544,48.229 		"/>
	</g>
	<g>
		<rect x="31.06" y="52.517" fill="#159690" width="36.325" height="1.13"/>
	</g>
	<g>
		<rect x="35.583" y="57.181" fill="#159690" width="27.279" height="1.132"/>
	</g>
	<g>
		<rect x="40.107" y="62.693" fill="#159690" width="18.232" height="1.13"/>
	</g>
	<path fill="#179099" d="M52.105,49.663c0,1.123-0.91,2.034-2.034,2.034l0,0c-1.123,0-2.03-0.911-2.03-2.034V29.587
		c0-1.123,0.907-2.033,2.03-2.033l0,0c1.124,0,2.034,0.91,2.034,2.033V49.663z"/>
</g>
</svg>
