<?xml version="1.0" encoding="iso-8859-1"?>
<!-- Generator: Adobe Illustrator 18.1.1, SVG Export Plug-In . SVG Version: 6.00 Build 0)  -->
<svg version="1.1" id="Capa_1" xmlns="http://www.w3.org/2000/svg" xmlns:xlink="http://www.w3.org/1999/xlink" x="0px" y="0px"
	 viewBox="0 0 612.001 612.001" style="enable-background:new 0 0 612.001 612.001;" xml:space="preserve">
<g>
	<g>
		<path d="M339.982,367.472c-11.153,4.368-22.282,6.559-33.406,6.572c-11.125-0.013-22.253-2.204-33.406-6.572
			c-7.509-2.941-16.038,0.023-20.068,7.009c-30.441,52.761-60.951,105.642-91.51,158.608c-4.62,8.007-1.679,18.292,6.521,22.56
			c43.778,22.789,91.118,34.199,138.464,34.227c47.346-0.027,94.685-11.437,138.464-34.227c8.2-4.268,11.141-14.553,6.521-22.56
			c-30.559-52.966-61.069-105.846-91.51-158.608C356.02,367.496,347.491,364.531,339.982,367.472z"/>
		<path d="M161.453,30.273c-4.65-8.045-15.088-10.593-22.901-5.561c-1.117,0.719-2.228,1.446-3.332,2.183
			c-49.231,32.883-86.54,75.897-110.364,130.297c-10.001,22.838-16.871,46.615-20.964,71.205
			c-1.89,11.356-3.183,23.793-3.865,35.922c-0.524,9.322,6.93,17.156,16.267,17.156h183.058c8.013,0,14.825-5.831,16.084-13.745
			c3.759-23.629,15.06-42.876,33.804-57.91c6.28-5.037,7.957-13.896,3.929-20.865L161.453,30.273z"/>
		<path d="M587.145,157.193c-23.823-54.401-61.132-97.415-110.364-130.297c-1.104-0.738-2.216-1.465-3.333-2.183
			c-7.813-5.031-18.251-2.484-22.901,5.561l-91.715,158.683c-4.029,6.97-2.351,15.828,3.929,20.865
			c18.743,15.035,30.045,34.281,33.804,57.91c1.259,7.914,8.071,13.745,16.084,13.745h183.059c9.337,0,16.791-7.834,16.267-17.156
			c-0.682-12.129-1.976-24.566-3.866-35.922C604.017,203.808,597.147,180.031,587.145,157.193z"/>
		<path d="M306.561,223.386c-32.322-0.107-58.391,25.755-58.57,58.103c-0.176,31.934,25.962,58.289,57.944,58.426
			c0.209,0.001,0.417-0.004,0.625-0.005c32.056-0.198,57.902-26.07,58.003-58.227C364.664,249.622,338.666,223.492,306.561,223.386z
			"/>
	</g>
</g>
<g>
</g>
<g>
</g>
<g>
</g>
<g>
</g>
<g>
</g>
<g>
</g>
<g>
</g>
<g>
</g>
<g>
</g>
<g>
</g>
<g>
</g>
<g>
</g>
<g>
</g>
<g>
</g>
<g>
</g>
</svg>
