<?xml version="1.0" encoding="iso-8859-1"?>
<!-- Generator: Adobe Illustrator 16.0.0, SVG Export Plug-In . SVG Version: 6.00 Build 0)  -->
<!DOCTYPE svg PUBLIC "-//W3C//DTD SVG 1.1//EN" "http://www.w3.org/Graphics/SVG/1.1/DTD/svg11.dtd">
<svg version="1.1" id="Capa_1" xmlns="http://www.w3.org/2000/svg" xmlns:xlink="http://www.w3.org/1999/xlink" x="0px" y="0px"
	 width="45.711px" height="45.711px" viewBox="0 0 45.711 45.711" style="enable-background:new 0 0 45.711 45.711;"
	 xml:space="preserve">
<g>
	<g>
		<g>
			<path d="M36.261,7.156c-0.435,0-0.86,0.031-1.28,0.09c-1.521-1.833-3.813-3-6.379-3c-0.492,0-0.976,0.043-1.442,0.125
				C25.053,1.708,21.792,0,18.135,0C13.231,0,9.045,3.067,7.39,7.388c-4.091,0.935-7.144,4.597-7.144,8.971
				c0,5.083,4.122,9.202,9.203,9.202c0.048,0,0.097,0,0.145,0c2.013,3.325,6.664,5.654,12.083,5.654
				c5.576,0,10.343-2.469,12.252-5.951c0.744,0.194,1.526,0.3,2.334,0.3c5.082,0,9.201-4.122,9.201-9.204S41.343,7.156,36.261,7.156
				z"/>
			<path d="M6.876,36.249c0,1.208,0.98,2.188,2.188,2.188c1.21,0,2.189-0.979,2.189-2.188c0-0.779-0.91-2.283-1.557-3.253
				c-0.302-0.453-0.964-0.453-1.266,0C7.786,33.966,6.876,35.47,6.876,36.249z"/>
			<path d="M30.069,37.408c0,1.207,0.979,2.188,2.187,2.188c1.211,0,2.19-0.979,2.19-2.188c0-0.779-0.91-2.283-1.56-3.254
				c-0.302-0.453-0.964-0.451-1.265,0C30.978,35.126,30.069,36.629,30.069,37.408z"/>
			<path d="M12.004,44.105c0,0.887,0.72,1.605,1.607,1.605c0.887,0,1.606-0.72,1.606-1.605c0-0.507-0.521-1.427-0.969-2.125
				c-0.297-0.466-0.979-0.466-1.275,0C12.525,42.68,12.004,43.6,12.004,44.105z"/>
			<path d="M25.705,44.105c0,0.887,0.718,1.605,1.604,1.605c0.886,0,1.607-0.72,1.607-1.605c0-0.507-0.521-1.427-0.97-2.125
				c-0.299-0.464-0.979-0.464-1.276,0C26.224,42.68,25.705,43.6,25.705,44.105z"/>
			<path d="M18.472,39.729c0,1.207,0.981,2.188,2.188,2.188c1.209,0,2.188-0.979,2.188-2.188c0-0.778-0.909-2.282-1.556-3.254
				c-0.302-0.452-0.964-0.452-1.266,0C19.381,37.445,18.472,38.949,18.472,39.729z"/>
		</g>
	</g>
</g>
<g>
</g>
<g>
</g>
<g>
</g>
<g>
</g>
<g>
</g>
<g>
</g>
<g>
</g>
<g>
</g>
<g>
</g>
<g>
</g>
<g>
</g>
<g>
</g>
<g>
</g>
<g>
</g>
<g>
</g>
</svg>
