<?xml version="1.0" encoding="iso-8859-1"?>
<!-- Generator: Adobe Illustrator 16.0.0, SVG Export Plug-In . SVG Version: 6.00 Build 0)  -->
<!DOCTYPE svg PUBLIC "-//W3C//DTD SVG 1.1//EN" "http://www.w3.org/Graphics/SVG/1.1/DTD/svg11.dtd">
<svg version="1.1" id="Capa_1" xmlns="http://www.w3.org/2000/svg" xmlns:xlink="http://www.w3.org/1999/xlink" x="0px" y="0px"
	 width="45.22px" height="45.22px" viewBox="0 0 45.22 45.22" style="enable-background:new 0 0 45.22 45.22;" xml:space="preserve"
	>
<g>
	<g>
		<circle cx="22.611" cy="5.024" r="3.552"/>
		<path d="M26.436,12.675c-0.399-2-2.289-3.373-4.339-3.099c-1.696,0.225-2.99,1.51-3.309,3.099c1.07-0.792,2.394-1.262,3.824-1.262
			S25.364,11.884,26.436,12.675z"/>
		<path d="M35.291,29.401c-0.814-0.717-2.057-0.637-2.772,0.178l-2.8,3.18c-0.717,0.814-0.637,2.057,0.178,2.773
			c0.373,0.328,0.836,0.49,1.297,0.49c0.545,0,1.087-0.227,1.476-0.668l2.798-3.181C36.186,31.36,36.106,30.118,35.291,29.401z"/>
		<path d="M32.669,10.911c-0.718-0.814-1.959-0.894-2.772-0.177c-0.814,0.717-0.895,1.959-0.178,2.773l2.8,3.181
			c0.389,0.441,0.931,0.667,1.477,0.667c0.461,0,0.923-0.161,1.297-0.489c0.814-0.717,0.895-1.959,0.177-2.773L32.669,10.911z"/>
		<g>
			<path d="M22.629,23.517c-0.006,0-0.031,0-0.037,0c-1.251,0-2.444,0.567-3.278,1.502c-0.834,0.934-1.231,2.194-1.09,3.438
				l2.019,13.048c0.138,1.229,1.144,2.244,2.368,2.244c1.226,0,2.229-1.007,2.37-2.238l2.017-13.056
				c0.142-1.243-0.256-2.504-1.09-3.438C25.072,24.085,23.881,23.517,22.629,23.517z"/>
			<circle cx="22.61" cy="18.078" r="4.33"/>
		</g>
		<g>
			<path d="M41.219,17.509c-0.005,0-0.027,0-0.033,0c-1.14,0-2.226,0.517-2.984,1.367c-0.76,0.85-1.121,1.998-0.993,3.131
				l1.837,11.878c0.126,1.12,1.042,2.043,2.156,2.043c1.115,0,2.03-0.917,2.157-2.036l1.836-11.887
				c0.128-1.132-0.233-2.279-0.992-3.129S42.358,17.509,41.219,17.509z"/>
			<circle cx="41.202" cy="12.557" r="3.942"/>
		</g>
	</g>
	<g>
		<path d="M9.93,29.401c0.815-0.717,2.057-0.637,2.773,0.178l2.799,3.18c0.717,0.814,0.637,2.057-0.177,2.773
			c-0.373,0.328-0.836,0.49-1.297,0.49c-0.545,0-1.087-0.227-1.476-0.668l-2.798-3.181C9.036,31.36,9.114,30.118,9.93,29.401z"/>
		<path d="M12.55,10.911c0.718-0.814,1.959-0.894,2.773-0.177c0.814,0.717,0.894,1.959,0.177,2.773l-2.799,3.181
			c-0.389,0.441-0.931,0.667-1.477,0.667c-0.461,0-0.923-0.161-1.297-0.489c-0.814-0.717-0.894-1.959-0.177-2.773L12.55,10.911z"/>
		<g>
			<path d="M4.001,17.509c0.005,0,0.028,0,0.034,0c1.139,0,2.225,0.517,2.984,1.367c0.76,0.85,1.121,1.998,0.993,3.131L6.174,33.885
				c-0.126,1.12-1.042,2.043-2.156,2.043c-1.115,0-2.03-0.917-2.157-2.036L0.025,22.005c-0.128-1.132,0.233-2.279,0.992-3.129
				C1.776,18.026,2.861,17.509,4.001,17.509z"/>
			<circle cx="4.019" cy="12.557" r="3.942"/>
		</g>
	</g>
</g>
<g>
</g>
<g>
</g>
<g>
</g>
<g>
</g>
<g>
</g>
<g>
</g>
<g>
</g>
<g>
</g>
<g>
</g>
<g>
</g>
<g>
</g>
<g>
</g>
<g>
</g>
<g>
</g>
<g>
</g>
</svg>
