<?xml version="1.0" encoding="iso-8859-1"?>
<!-- Generator: Adobe Illustrator 18.1.1, SVG Export Plug-In . SVG Version: 6.00 Build 0)  -->
<svg version="1.1" id="Capa_1" xmlns="http://www.w3.org/2000/svg" xmlns:xlink="http://www.w3.org/1999/xlink" x="0px" y="0px"
	 viewBox="0 0 27.119 27.119" style="enable-background:new 0 0 27.119 27.119;" xml:space="preserve">
<g>
	<path style="fill:#010002;" d="M8.043,10.816c-0.417,0.104-0.841-0.158-0.946-0.584S7.243,9.377,7.66,9.273
		C8.077,9.17,8.501,9.432,8.606,9.857C8.713,10.284,8.46,10.713,8.043,10.816z M14.847,5.941c-0.919,0-1.667,0.731-1.667,1.631
		c0,0.898,0.749,1.63,1.667,1.63c0.917,0,1.667-0.731,1.667-1.63C16.513,6.673,15.764,5.941,14.847,5.941z M25.24,15.194
		l-0.162-0.551l-0.171-0.537l-0.205-0.5l-0.19-0.496l-0.193-0.486l-0.18-0.477l-0.146-0.499l-0.119-0.498l0.026-0.229l0.104-0.218
		l0.108-0.229l0.024-0.214l-0.09-0.436l-0.11-0.436l-0.115-0.442L23.682,8.52l-0.144-0.434l-0.151-0.425l-0.163-0.435l-0.171-0.42
		l-0.188-0.397L22.66,6.002l-0.196-0.4l0.614-0.379l-0.214-0.374L22.62,4.502l-0.241-0.353l-0.244-0.336l-0.229-0.28l-0.242-0.27
		l-0.242-0.245l-0.251-0.241l-0.255-0.229l0.562-0.215l-0.291-0.196L20.91,1.932l-0.297-0.176l-0.293-0.17l-0.31-0.165l-0.311-0.15
		l-0.32-0.145l-0.34-0.136l-0.333-0.132L18.37,0.734l-0.404-0.131l-0.4-0.104l-0.406-0.11l-0.399-0.093l-0.419-0.085l-0.414-0.066
		l-0.417-0.053l-0.42-0.039l-0.412-0.026l-0.42-0.014L13.844,0l-0.433,0.013l-0.419,0.014l-0.414,0.026l-0.419,0.039l-0.412,0.053
		l-0.432,0.066l-0.427,0.085l-0.432,0.081l-0.431,0.086L9.597,0.589l-0.43,0.117L8.734,0.844L8.319,0.99L7.913,1.153L7.514,1.345
		L7.107,1.526L6.721,1.729l-0.38,0.229L5.98,2.188L5.632,2.444l-0.341,0.27L4.985,2.982L4.69,3.264L4.409,3.56l-0.27,0.306
		l-0.255,0.34L3.627,4.528l-0.23,0.347L3.18,5.235L2.97,5.601L2.783,5.974L2.62,6.354L2.462,6.731l-0.136,0.39L2.207,7.51
		l-0.1,0.405L2.029,8.304l-0.118,0.83L1.866,9.951l0.02,0.818l0.079,0.807l0.131,0.81l0.215,0.791l0.271,0.769l2.021,3.28
		c3.429,3.528,3.282,7.059,3.282,7.059l0.009,0.693l0.027,2.141h11.682l0.052-0.221v-0.684l0.024-0.688l0.052-1.532l0.079-0.778
		l0.038-0.185l0.074-0.148L20,22.75l0.104-0.11l0.141-0.078l0.158-0.054l0.176-0.058l0.188-0.028l0.244-0.024l0.229-0.013h0.056
		l0.229,0.024l0.217,0.013l0.224,0.028l0.209,0.017l0.243,0.029l0.23,0.024l-0.575,0.013l0.254,0.028l0.257,0.013l0.28,0.014
		l0.164-0.014l0.169-0.041l0.175-0.066l0.166-0.082l0.158-0.104l0.137-0.125l0.114-0.134l0.1-0.139l0.065-0.295l-0.035-0.318
		l-0.062-0.317V20.64l0.047-0.138l0.065-0.114l0.065-0.127l0.081-0.104l0.083-0.111l0.062-0.117l0.054-0.123l0.015-0.132
		l-0.015-0.149l-0.023-0.131l-0.041-0.141l-0.066-0.13l-0.097-0.124l-0.106-0.119l-0.124-0.09l-0.144-0.102l0.156-0.078l0.148-0.092
		l0.152-0.109l0.104-0.104l0.095-0.123l0.057-0.135l0.029-0.123l-0.029-0.132l-0.149-0.476l-0.093-0.43l-0.058-0.4v-0.395L24.512,16
		l0.204-0.093l0.178-0.1l0.146-0.104l0.112-0.117l0.063-0.124l0.039-0.13L25.24,15.194z M10.072,11.113l-0.276,0.465
		c-0.018,0.033-0.717-0.113-0.717-0.113l-0.258,0.194c0,0-0.094,0.727-0.125,0.733l-0.52,0.129
		c-0.035,0.007-0.434-0.598-0.434-0.598l-0.318-0.047c0,0-0.566,0.438-0.6,0.418l-0.458-0.283c-0.033-0.021,0.102-0.729,0.102-0.729
		L6.28,11.016c0,0-0.712-0.1-0.723-0.136l-0.13-0.529c-0.009-0.036,0.579-0.438,0.579-0.438l0.047-0.321
		c0,0-0.438-0.585-0.419-0.615l0.274-0.466c0.02-0.031,0.717,0.112,0.717,0.112l0.258-0.191c0,0,0.092-0.724,0.126-0.733
		l0.517-0.126c0.038-0.01,0.437,0.596,0.437,0.596L8.28,8.218c0,0,0.566-0.439,0.598-0.422L9.337,8.08
		C9.369,8.1,9.236,8.809,9.236,8.809l0.19,0.266c0,0,0.711,0.1,0.723,0.138l0.13,0.527c0.009,0.036-0.58,0.436-0.58,0.436
		l-0.046,0.325C9.652,10.501,10.09,11.082,10.072,11.113z M20.046,8.152L20.046,8.152c-0.001,0.079-1.431,0.588-1.431,0.588
		l-0.264,0.622c0,0,0.611,1.376,0.56,1.431l-0.812,0.791c-0.054,0.053-1.433-0.576-1.433-0.576l-0.637,0.258
		c0,0-0.562,1.395-0.641,1.395h-1.141c-0.079,0-0.599-1.398-0.599-1.398l-0.64-0.258c0,0-1.401,0.597-1.458,0.544l-0.8-0.789
		c-0.055-0.056,0.588-1.404,0.588-1.404l-0.264-0.624c0,0-1.426-0.55-1.426-0.625V6.989c0-0.077,1.43-0.586,1.43-0.586l0.262-0.622
		c0,0-0.61-1.379-0.557-1.432l0.808-0.789c0.059-0.054,1.437,0.574,1.437,0.574l0.636-0.257c0,0,0.562-1.396,0.638-1.396h1.145
		c0.077,0,0.6,1.4,0.6,1.4l0.634,0.256c0,0,1.407-0.598,1.461-0.542l0.811,0.789c0.056,0.055-0.587,1.404-0.587,1.404l0.26,0.622
		c0,0,1.426,0.55,1.426,0.624v1.118H20.046z"/>
</g>
<g>
</g>
<g>
</g>
<g>
</g>
<g>
</g>
<g>
</g>
<g>
</g>
<g>
</g>
<g>
</g>
<g>
</g>
<g>
</g>
<g>
</g>
<g>
</g>
<g>
</g>
<g>
</g>
<g>
</g>
</svg>
