<?xml version="1.0" encoding="iso-8859-1"?>
<!-- Generator: Adobe Illustrator 18.0.0, SVG Export Plug-In . SVG Version: 6.00 Build 0)  -->
<!DOCTYPE svg PUBLIC "-//W3C//DTD SVG 1.1//EN" "http://www.w3.org/Graphics/SVG/1.1/DTD/svg11.dtd">
<svg version="1.1" id="Capa_1" xmlns="http://www.w3.org/2000/svg" xmlns:xlink="http://www.w3.org/1999/xlink" x="0px" y="0px"
	 viewBox="0 0 55.123 55.123" style="enable-background:new 0 0 55.123 55.123;" xml:space="preserve">
<path d="M50.65,52.873l-5.979-10.357V16.318c0-5.31-4.319-9.629-9.628-9.629H20.08c-5.31,0-9.629,4.319-9.629,9.629v26.199
	L4.473,52.873c-0.414,0.717-0.169,1.635,0.549,2.049c0.716,0.415,1.635,0.169,2.049-0.549l5.827-10.093h29.328l5.827,10.093
	c0.277,0.481,0.782,0.75,1.3,0.75c0.255,0,0.513-0.065,0.749-0.202C50.819,54.507,51.065,53.59,50.65,52.873z M13.451,41.28V16.318
	c0-3.655,2.974-6.629,6.629-6.629h14.963c3.654,0,6.628,2.974,6.628,6.629V41.28H13.451z M39.171,16.318v12.884h-23.22V16.318
	c0-2.276,1.853-4.128,4.129-4.128h14.963C37.32,12.189,39.171,14.042,39.171,16.318z M18.417,2.702C18.417,1.21,19.626,0,21.119,0
	c1.492,0,2.701,1.21,2.701,2.702s-1.209,2.702-2.701,2.702C19.626,5.403,18.417,4.194,18.417,2.702z M24.86,2.702
	C24.86,1.21,26.07,0,27.562,0c1.492,0,2.702,1.21,2.702,2.702s-1.209,2.702-2.702,2.702C26.07,5.403,24.86,4.194,24.86,2.702z
	 M31.303,2.702C31.303,1.21,32.513,0,34.005,0s2.701,1.21,2.701,2.702s-1.209,2.702-2.701,2.702S31.303,4.194,31.303,2.702z
	 M23.82,35.12c0,1.492-1.209,2.702-2.701,2.702c-1.492,0-2.701-1.209-2.701-2.702c0-1.492,1.209-2.701,2.701-2.701
	C22.611,32.419,23.82,33.628,23.82,35.12z M36.706,35.12c0,1.492-1.209,2.702-2.701,2.702s-2.702-1.209-2.702-2.702
	c0-1.492,1.21-2.701,2.702-2.701S36.706,33.628,36.706,35.12z"/>
<g>
</g>
<g>
</g>
<g>
</g>
<g>
</g>
<g>
</g>
<g>
</g>
<g>
</g>
<g>
</g>
<g>
</g>
<g>
</g>
<g>
</g>
<g>
</g>
<g>
</g>
<g>
</g>
<g>
</g>
</svg>
