<?xml version="1.0" encoding="iso-8859-1"?>
<!-- Generator: Adobe Illustrator 16.0.0, SVG Export Plug-In . SVG Version: 6.00 Build 0)  -->
<!DOCTYPE svg PUBLIC "-//W3C//DTD SVG 1.1//EN" "http://www.w3.org/Graphics/SVG/1.1/DTD/svg11.dtd">
<svg version="1.1" id="Capa_1" xmlns="http://www.w3.org/2000/svg" xmlns:xlink="http://www.w3.org/1999/xlink" x="0px" y="0px"
	 width="612.004px" height="612.004px" viewBox="0 0 612.004 612.004" style="enable-background:new 0 0 612.004 612.004;"
	 xml:space="preserve">
<g>
	<g id="Game_Pad">
		<g>
			<path d="M599.056,276.646c-30.019-137.575-72.346-171.493-98.116-185.095c-41.277-21.784-89.129-9.108-105.004-0.892
				c-18.025,9.284-30.193,26.959-48.516,34.634c-21.173,8.829-49.968,11.224-71.629,0.56c-17.256-8.514-32.484-26.697-53.394-34.739
				c-26.505-10.228-70.65-24.564-114.358,6.766c-10.333,7.413-84.024,69.198-106.158,262.212
				C-11.773,479.103,53.474,517.39,51.079,515.66c16.784,12.029,54.373,32.361,105.302,0.508
				c34.04-21.277,61.663-63.307,61.663-63.307s12.308-23.375,28.655-33.307c11.574-7.045,28.882-1.695,28.882-1.695h61.245
				c0,0,19.441-2.447,33.096,3.584c13.252,5.787,20.734,20.07,20.734,20.07s40.369,52.17,79.06,78.762
				c16.469,11.295,82.661,24.303,116.84-17.447C608.881,475.501,624.109,391.494,599.056,276.646z M271.875,264.461
				c0,10.455-8.305,18.917-18.55,18.917h-46.4v47.362c0,10.473-8.305,18.951-18.55,18.951h-13.917
				c-10.245,0-18.549-8.461-18.549-18.951v-47.362H109.49c-10.245,0-18.55-8.445-18.55-18.917v-14.196
				c0-10.473,8.305-18.952,18.55-18.952h46.4v-47.31c0-10.455,8.305-18.952,18.55-18.952h13.917c10.245,0,18.55,8.479,18.55,18.952
				v47.327h46.4c10.245,0,18.55,8.462,18.55,18.952v14.179H271.875z M402.562,330.722c-19.214,0-34.791-15.875-34.791-35.508
				c0-19.599,15.577-35.491,34.791-35.491s34.792,15.875,34.792,35.491C437.371,314.847,421.775,330.722,402.562,330.722z
				 M466.358,251.855c-19.005,0-34.407-15.717-34.407-35.124c0-19.354,15.402-35.071,34.407-35.071
				c19.004,0,34.406,15.718,34.406,35.071C500.765,236.138,485.362,251.855,466.358,251.855z"/>
		</g>
	</g>
</g>
<g>
</g>
<g>
</g>
<g>
</g>
<g>
</g>
<g>
</g>
<g>
</g>
<g>
</g>
<g>
</g>
<g>
</g>
<g>
</g>
<g>
</g>
<g>
</g>
<g>
</g>
<g>
</g>
<g>
</g>
</svg>
