<?xml version="1.0" encoding="utf-8"?>
<!-- Generator: Adobe Illustrator 16.0.0, SVG Export Plug-In . SVG Version: 6.00 Build 0)  -->
<!DOCTYPE svg PUBLIC "-//W3C//DTD SVG 1.1//EN" "http://www.w3.org/Graphics/SVG/1.1/DTD/svg11.dtd">
<svg version="1.1" id="Layer_1" xmlns="http://www.w3.org/2000/svg" xmlns:xlink="http://www.w3.org/1999/xlink" x="0px" y="0px"
	 width="100px" height="100px" viewBox="0 0 100 100" enable-background="new 0 0 100 100" xml:space="preserve">
<g>
	<path fill="#E2A879" d="M45.008,51.334c0,2.619-2.123,4.742-4.742,4.742l0,0c-2.619,0-4.742-2.123-4.742-4.742v-6.517
		c0-2.619,2.123-4.742,4.742-4.742l0,0c2.619,0,4.742,2.123,4.742,4.742V51.334z"/>
	<path fill="#F7C08D" d="M64.477,53.246c0,2.209-1.791,4-4,4H41.459c-2.209,0-4-1.791-4-4v-11.5c0-2.209,1.791-4,4-4h19.018
		c2.209,0,4,1.791,4,4V53.246z"/>
	<path fill="#F7C08D" d="M61.375,70.58c0,2.209-1.791,4-4,4h-12.5c-2.209,0-4-1.791-4-4v-13c0-2.209,1.791-4,4-4h12.5
		c2.209,0,4,1.791,4,4V70.58z"/>
	<path fill="#F7C08D" d="M44.627,39.144c0,1.621-1.314,2.935-2.936,2.935l0,0c-1.621,0-2.934-1.313-2.934-2.935V28.355
		c0-1.621,1.312-2.935,2.934-2.935l0,0c1.621,0,2.936,1.313,2.936,2.935V39.144z"/>
	<path fill="#F7C08D" d="M50.793,47.141c0,1.621-1.312,2.935-2.934,2.935l0,0c-1.621,0-2.936-1.313-2.936-2.935V36.352
		c0-1.621,1.314-2.935,2.936-2.935l0,0c1.621,0,2.934,1.313,2.934,2.935V47.141z"/>
	<path fill="#F7C08D" d="M56.961,48.141c0,1.621-1.314,2.935-2.936,2.935l0,0c-1.619,0-2.934-1.313-2.934-2.935V37.352
		c0-1.621,1.314-2.935,2.934-2.935l0,0c1.621,0,2.936,1.313,2.936,2.935V48.141z"/>
	<path fill="#F7C08D" d="M63.127,48.141c0,1.621-1.312,2.935-2.934,2.935l0,0c-1.621,0-2.936-1.313-2.936-2.935V37.352
		c0-1.621,1.314-2.935,2.936-2.935l0,0c1.621,0,2.934,1.313,2.934,2.935V48.141z"/>
</g>
</svg>
