<?xml version="1.0" encoding="iso-8859-1"?>
<!-- Generator: Adobe Illustrator 18.0.0, SVG Export Plug-In . SVG Version: 6.00 Build 0)  -->
<!DOCTYPE svg PUBLIC "-//W3C//DTD SVG 1.1//EN" "http://www.w3.org/Graphics/SVG/1.1/DTD/svg11.dtd">
<svg version="1.1" id="Capa_1" xmlns="http://www.w3.org/2000/svg" xmlns:xlink="http://www.w3.org/1999/xlink" x="0px" y="0px"
	 viewBox="0 0 398.146 398.146" style="enable-background:new 0 0 398.146 398.146;" xml:space="preserve">
<g>
	<path d="M276.543,141.53c0.018-0.188,0.026-0.378,0.026-0.57v-21.639c0-25.965-19.595-47.439-44.774-50.417V55.117h3.485
		c3.314,0,6-2.687,6-6V6c0-3.313-2.686-6-6-6h-72.415c-3.314,0-6,2.687-6,6v43.117c0,3.313,2.686,6,6,6h3.485v13.787
		c-25.179,2.978-44.773,24.452-44.773,50.417v21.639c0,0.186,0.009,0.371,0.025,0.553c0.136,5.442,2.317,10.535,6.178,14.396
		c0.066,0.065,0.131,0.131,0.197,0.195c-3.943,3.841-6.397,9.204-6.4,15.128v52.264c0,0.186,0.009,0.371,0.025,0.553
		c0.136,5.441,2.317,10.535,6.178,14.395c0.066,0.065,0.131,0.131,0.197,0.195c-3.943,3.841-6.397,9.203-6.4,15.127v52.267
		c0,0.186,0.009,0.371,0.025,0.553c0.136,5.441,2.317,10.535,6.178,14.396c0.066,0.065,0.131,0.131,0.197,0.195
		c-3.943,3.841-6.397,9.203-6.4,15.127v35.641c0,14.448,11.757,26.203,26.207,26.203h102.577c14.451,0,26.208-11.755,26.208-26.203
		v-35.645c-0.004-5.922-2.458-11.283-6.401-15.123c0.066-0.064,0.133-0.13,0.198-0.195c3.856-3.856,6.036-8.942,6.177-14.378
		c0.018-0.188,0.026-0.378,0.026-0.57v-52.27c-0.004-5.922-2.457-11.283-6.401-15.123c0.066-0.064,0.133-0.13,0.198-0.195
		c3.856-3.856,6.036-8.942,6.177-14.378c0.018-0.188,0.026-0.378,0.026-0.57v-52.269c-0.004-5.922-2.457-11.283-6.401-15.123
		c0.066-0.064,0.133-0.13,0.198-0.195C274.223,152.052,276.402,146.966,276.543,141.53z M250.361,386.146H147.784
		c-7.834,0-14.207-6.371-14.207-14.203v-35.638c0.002-5.038,4.11-9.137,9.157-9.137c0.105,0,0.206-0.011,0.31-0.016h78.029
		c3.314,0,6-2.686,6-6c0-3.313-2.686-6-6-6h-78.661c-2.325-0.08-4.499-1.01-6.147-2.658c-1.723-1.724-2.671-4.017-2.669-6.459
		c0-0.158-0.006-0.315-0.019-0.473v-51.795c0.002-5.038,4.11-9.137,9.157-9.137c0.243,0,0.482-0.019,0.718-0.047h77.621
		c3.314,0,6-2.686,6-6s-2.686-6-6-6h-78.967c-0.056,0-0.11,0.007-0.166,0.008c-2.146-0.182-4.139-1.098-5.676-2.635
		c-1.723-1.724-2.671-4.017-2.669-6.459c0-0.158-0.006-0.315-0.019-0.473v-51.792c0.002-5.039,4.11-9.138,9.157-9.138
		c0.319,0,0.63-0.032,0.935-0.08h77.404c3.314,0,6-2.687,6-6c0-3.314-2.686-6-6-6h-78.967c-0.133,0-0.262,0.012-0.392,0.02
		c-2.061-0.226-3.968-1.131-5.45-2.613c-1.723-1.723-2.671-4.017-2.669-6.459c0-0.158-0.006-0.315-0.019-0.473v-21.17
		c0-21.378,17.394-38.77,38.773-38.77c3.314,0,6-2.687,6-6V55.117h41.444v19.435c0,3.313,2.686,6,6,6
		c21.38,0,38.774,17.392,38.774,38.77v21.154c-0.013,0.162-0.02,0.325-0.02,0.488c0.002,2.442-0.946,4.736-2.669,6.459
		c-1.45,1.45-3.308,2.344-5.315,2.594h-16.159c-3.314,0-6,2.686-6,6c0,2.443,1.463,4.541,3.559,5.477l26.605,16.019v45.498
		c-0.013,0.162-0.02,0.325-0.02,0.488c0.002,2.442-0.946,4.736-2.669,6.459c-1.505,1.505-3.445,2.418-5.541,2.627h-15.934
		c-3.314,0-6,2.686-6,6c0,2.361,1.368,4.399,3.352,5.378l-0.003,0.002l26.814,16.145v45.438c-0.013,0.162-0.02,0.325-0.02,0.488
		c0.002,2.442-0.946,4.735-2.669,6.459c-1.648,1.648-3.822,2.578-6.147,2.658h-15.327c-3.314,0-6,2.687-6,6
		c0,2.368,1.376,4.41,3.368,5.386c-0.003,0.001-0.019,0.012-0.019,0.012l26.814,16.145v29.248
		C264.569,379.775,258.195,386.146,250.361,386.146z"/>
	<path d="M145.982,251.933c-3.314,0-6,2.686-6,6v22.917c0,3.313,2.686,6,6,6c3.313,0,6-2.687,6-6v-22.917
		C151.982,254.619,149.296,251.933,145.982,251.933z"/>
	<path d="M145.982,332.933c-3.314,0-6,2.687-6,6v22.917c0,3.313,2.686,6,6,6c3.313,0,6-2.687,6-6v-22.917
		C151.982,335.619,149.296,332.933,145.982,332.933z"/>
	<path d="M145.982,168.933c-3.314,0-6,2.686-6,6v22.917c0,3.313,2.686,6,6,6c3.313,0,6-2.687,6-6v-22.917
		C151.982,171.619,149.296,168.933,145.982,168.933z"/>
	<path d="M174.771,86.126c-19.183,0-34.789,15.605-34.789,34.788c0,3.313,2.686,6,6,6c3.313,0,6-2.687,6-6
		c0-12.565,10.223-22.788,22.789-22.788c3.314,0,6-2.687,6-6C180.771,88.813,178.085,86.126,174.771,86.126z"/>
</g>
<g>
</g>
<g>
</g>
<g>
</g>
<g>
</g>
<g>
</g>
<g>
</g>
<g>
</g>
<g>
</g>
<g>
</g>
<g>
</g>
<g>
</g>
<g>
</g>
<g>
</g>
<g>
</g>
<g>
</g>
</svg>
