<?xml version="1.0" encoding="iso-8859-1"?>
<!-- Generator: Adobe Illustrator 16.0.0, SVG Export Plug-In . SVG Version: 6.00 Build 0)  -->
<!DOCTYPE svg PUBLIC "-//W3C//DTD SVG 1.1//EN" "http://www.w3.org/Graphics/SVG/1.1/DTD/svg11.dtd">
<svg version="1.1" id="Capa_1" xmlns="http://www.w3.org/2000/svg" xmlns:xlink="http://www.w3.org/1999/xlink" x="0px" y="0px"
	 width="108.079px" height="108.08px" viewBox="0 0 108.079 108.08" style="enable-background:new 0 0 108.079 108.08;"
	 xml:space="preserve">
<g>
	<g>
		<path d="M61.353,46.528c0.321,0.262,0.644,0.519,0.969,0.771c1.311,0.994,2.658,1.895,4.041,2.693
			c2.759,1.608,5.623,2.881,8.583,3.915c2.964,1.023,6.009,1.799,9.168,2.24c1.581,0.222,3.189,0.352,4.843,0.379
			c0.824,0,1.656-0.006,2.505-0.068c0.849-0.055,1.707-0.144,2.601-0.328c-0.592-0.688-1.215-1.287-1.848-1.855
			c-0.63-0.575-1.273-1.097-1.931-1.602c-1.308-0.999-2.659-1.896-4.038-2.695c-2.751-1.605-5.629-2.88-8.59-3.903
			c-2.963-1.02-6.009-1.792-9.171-2.229c-1.581-0.224-3.189-0.351-4.839-0.378c-0.578-0.003-1.164,0.007-1.756,0.027
			c-0.161-3.066-2.373-5.595-5.289-6.233c0.214-0.544,0.407-1.083,0.591-1.622c0.512-1.567,0.924-3.133,1.225-4.697
			c0.625-3.133,0.887-6.264,0.896-9.394c0.003-3.133-0.264-6.266-0.88-9.396c-0.307-1.565-0.712-3.133-1.227-4.698
			c-0.268-0.782-0.548-1.567-0.883-2.348c-0.338-0.782-0.691-1.567-1.157-2.35c-0.467,0.782-0.828,1.567-1.157,2.35
			c-0.337,0.78-0.612,1.565-0.879,2.348c-0.515,1.562-0.926,3.127-1.23,4.695c-0.616,3.133-0.883,6.263-0.876,9.396
			c0.004,3.129,0.271,6.261,0.894,9.394c0.301,1.567,0.708,3.133,1.223,4.697c0.183,0.539,0.382,1.082,0.589,1.622
			c-2.926,0.638-5.144,3.183-5.291,6.266c-0.016,0-0.033,0-0.05-0.003c-0.849-0.06-1.682-0.07-2.509-0.063
			c-1.647,0.024-3.263,0.151-4.844,0.375c-3.161,0.441-6.206,1.216-9.163,2.24c-2.958,1.03-5.831,2.301-8.583,3.913
			c-1.388,0.803-2.729,1.701-4.04,2.695c-0.655,0.508-1.307,1.027-1.935,1.595c-0.637,0.572-1.254,1.167-1.846,1.855
			c0.893,0.178,1.749,0.26,2.597,0.318c0.844,0.059,1.679,0.072,2.502,0.064c1.654-0.033,3.266-0.157,4.842-0.383
			c3.166-0.438,6.209-1.21,9.171-2.226c2.96-1.023,5.834-2.296,8.593-3.905c1.383-0.797,2.729-1.696,4.037-2.693
			c0.532-0.414,1.057-0.842,1.572-1.293c0.607,1.773,1.932,3.213,3.624,3.977l-5.143,55.332h15.804l-5.351-55.243
			C59.346,49.415,60.654,48.133,61.353,46.528z M55.165,46.447c-1.43,0-2.601-1.167-2.601-2.601c0-1.434,1.17-2.596,2.601-2.596
			c1.433,0,2.596,1.162,2.596,2.596C57.761,45.28,56.598,46.447,55.165,46.447z"/>
		<path d="M41.995,72.721c-0.736-0.562-1.492-1.064-2.264-1.513c-1.545-0.9-3.161-1.619-4.825-2.19
			c-1.66-0.571-3.371-1.006-5.147-1.245c-0.886-0.131-1.795-0.199-2.715-0.216c-0.323,0-0.655,0.003-0.985,0.017
			c-0.087-1.718-1.328-3.142-2.969-3.5c0.12-0.305,0.229-0.606,0.333-0.911c0.288-0.876,0.515-1.755,0.686-2.635
			c0.163-0.812,0.271-1.632,0.354-2.443c-1.388,0.182-2.827,0.298-4.307,0.339c0.074,0.698,0.166,1.403,0.301,2.104
			c0.173,0.88,0.4,1.759,0.688,2.635c0.098,0.305,0.217,0.606,0.332,0.911c-1.643,0.358-2.887,1.789-2.971,3.514
			c-0.01,0-0.022,0-0.029-0.003c-0.479-0.031-0.946-0.038-1.408-0.034c-0.926,0.014-1.829,0.085-2.716,0.209
			c-1.774,0.246-3.483,0.681-5.145,1.256c-1.66,0.578-3.277,1.293-4.822,2.196c-0.773,0.448-1.535,0.955-2.264,1.517
			c-0.368,0.28-0.732,0.574-1.09,0.89c-0.357,0.321-0.7,0.657-1.033,1.04c0.501,0.103,0.979,0.15,1.458,0.182
			c0.474,0.031,0.946,0.037,1.401,0.034c0.929-0.017,1.833-0.086,2.717-0.216c1.78-0.246,3.489-0.678,5.15-1.249
			c1.662-0.575,3.277-1.29,4.822-2.19c0.779-0.444,1.535-0.954,2.264-1.509c0.301-0.232,0.595-0.472,0.886-0.726
			c0.34,0.992,1.086,1.804,2.036,2.231l-2.883,31.06h8.869L23.717,71.27c0.916-0.376,1.648-1.099,2.04-1.999
			c0.178,0.145,0.364,0.288,0.542,0.432c0.736,0.562,1.494,1.067,2.267,1.516c1.547,0.907,3.159,1.615,4.818,2.197
			c1.665,0.575,3.376,1.01,5.148,1.256c0.89,0.123,1.795,0.195,2.716,0.213c0.467,0,0.933,0,1.408-0.038
			c0.474-0.03,0.958-0.079,1.458-0.182c-0.335-0.387-0.683-0.726-1.037-1.04C42.728,73.296,42.366,73.008,41.995,72.721z
			 M22.283,69.23c-0.806,0-1.461-0.656-1.461-1.464c0-0.805,0.655-1.458,1.461-1.458c0.803,0,1.458,0.657,1.458,1.458
			C23.741,68.57,23.086,69.23,22.283,69.23z"/>
		<path d="M23.521,47.695c-0.038-0.12-0.051-0.238-0.091-0.357c-0.15-0.438-0.308-0.876-0.501-1.318
			c-0.185-0.438-0.381-0.879-0.645-1.317c-0.262,0.438-0.465,0.879-0.646,1.317c-0.19,0.438-0.348,0.879-0.495,1.318
			c-0.224,0.672-0.375,1.348-0.529,2.022c0.359-0.225,0.707-0.505,1.071-0.715C22.27,48.3,22.911,48.013,23.521,47.695z"/>
		<path d="M107.045,73.618c-0.353-0.321-0.712-0.609-1.081-0.896c-0.739-0.562-1.492-1.064-2.266-1.513
			c-1.547-0.9-3.162-1.619-4.825-2.19s-3.374-1.006-5.147-1.245c-0.89-0.131-1.793-0.199-2.717-0.216
			c-0.325,0-0.657,0.003-0.985,0.017c-0.086-1.718-1.328-3.142-2.971-3.5c0.12-0.305,0.232-0.606,0.335-0.911
			c0.288-0.876,0.514-1.755,0.685-2.635c0.138-0.691,0.223-1.386,0.302-2.077h-0.182c-1.406-0.021-2.769-0.157-4.113-0.322
			c0.078,0.801,0.188,1.602,0.346,2.399c0.171,0.88,0.396,1.759,0.685,2.635c0.103,0.305,0.219,0.606,0.335,0.911
			c-1.646,0.358-2.889,1.789-2.971,3.514c-0.014,0-0.021,0-0.027-0.003c-0.479-0.031-0.944-0.038-1.409-0.034
			c-0.925,0.014-1.835,0.085-2.718,0.209c-1.772,0.246-3.483,0.681-5.146,1.256c-1.656,0.578-3.271,1.293-4.818,2.196
			c-0.777,0.448-1.533,0.955-2.266,1.517c-0.366,0.28-0.732,0.574-1.088,0.89c-0.356,0.321-0.705,0.657-1.034,1.04
			c0.5,0.103,0.979,0.15,1.458,0.182c0.473,0.031,0.944,0.037,1.403,0.034c0.924-0.017,1.834-0.086,2.717-0.216
			c1.772-0.246,3.483-0.678,5.147-1.249c1.663-0.575,3.274-1.29,4.825-2.19c0.773-0.444,1.533-0.954,2.262-1.509
			c0.301-0.232,0.599-0.472,0.883-0.726c0.346,0.992,1.085,1.804,2.036,2.231l-2.889,31.06h8.874l-3.001-31.012
			c0.91-0.373,1.643-1.095,2.039-1.998c0.179,0.15,0.359,0.294,0.541,0.438c0.739,0.555,1.492,1.064,2.266,1.513
			c1.547,0.903,3.155,1.615,4.822,2.197c1.663,0.574,3.37,1.009,5.146,1.252c0.887,0.13,1.79,0.198,2.714,0.216
			c0.466,0,0.935,0,1.41-0.037c0.472-0.035,0.954-0.083,1.458-0.186C107.75,74.275,107.401,73.939,107.045,73.618z M86.249,69.23
			c-0.805,0-1.462-0.656-1.462-1.464c0-0.805,0.657-1.458,1.462-1.458c0.804,0,1.457,0.657,1.457,1.458
			C87.706,68.57,87.053,69.23,86.249,69.23z"/>
		<path d="M88.011,49.712c-0.164-0.791-0.362-1.583-0.615-2.375c-0.151-0.438-0.309-0.876-0.504-1.318
			c-0.185-0.438-0.387-0.879-0.646-1.317c-0.264,0.438-0.465,0.879-0.65,1.317c-0.191,0.438-0.349,0.879-0.496,1.318
			c-0.064,0.185-0.092,0.371-0.146,0.558c0.472,0.255,0.985,0.476,1.44,0.743C86.95,48.956,87.471,49.363,88.011,49.712z"/>
	</g>
</g>
<g>
</g>
<g>
</g>
<g>
</g>
<g>
</g>
<g>
</g>
<g>
</g>
<g>
</g>
<g>
</g>
<g>
</g>
<g>
</g>
<g>
</g>
<g>
</g>
<g>
</g>
<g>
</g>
<g>
</g>
</svg>
