<?xml version="1.0" encoding="iso-8859-1"?>
<!-- Generator: Adobe Illustrator 18.1.1, SVG Export Plug-In . SVG Version: 6.00 Build 0)  -->
<svg version="1.1" id="Capa_1" xmlns="http://www.w3.org/2000/svg" xmlns:xlink="http://www.w3.org/1999/xlink" x="0px" y="0px"
	 viewBox="0 0 40.839 40.839" style="enable-background:new 0 0 40.839 40.839;" xml:space="preserve">
<g>
	<g>
		<path style="fill:#010002;" d="M13.591,23.227l1.68,0.816l-0.96,1.967l-0.961,0.146l-0.146,0.77l-1.968,1.682l-0.912,1.728
			l0.671,0.722l-1.101-0.289l-0.387-0.961l1.104-4.465l-0.913-0.816l-0.429-1.727l0.516-0.845l-0.471,0.071l-0.67-0.862
			l-0.577-0.288l-1.344-0.481l-1.106-1.728l-0.671-1.248v-1.682l-1.104-1.872L2.448,13l-0.864,0.48L0,14.25l1.007-0.816
			l-0.625-0.145l-0.237-0.816l0.719-0.577l-0.719-0.095l0.142-0.528h0.529l-0.48-0.721l1.296-0.77l2.353,1.298l0.867-0.816
			l1.871,1.104l3.601-0.387v1.826l-1.44,0.287l-0.289,0.771l1.393,1.487l0.336-0.048l0.238-1.872l0.916-0.047l0.381,1.054
			l0.481-0.287l1.056,2.355l-1.488,0.669l-1.152,0.626l-0.912,1.249v0.625l-0.337,0.047l-0.238-0.672l-1.297,0.191l-0.288,0.815
			l0.335,0.481l0.479-0.386l0.481,0.047l-0.24,0.685l0.575,0.041l0.193,0.719l0.388,0.129l0.286-0.467l1.921,0.192l1.294,0.961
			L13.591,23.227z M36.335,22.799l-0.104,0.814l-0.689-0.252l0.127-0.439l-0.756-0.063l-0.979,0.912l-1.039,0.377l0.252,1.412
			l-0.096,0.283l0.381,0.219l1.541-0.381l0.598,0.349l0.283-0.156l0.188,0.569l0.785,0.222l0.568-0.349l0.313-1.694l-0.853-0.851
			L36.335,22.799z M32.518,22.01l0.817,0.156l0.378-1.162l-0.222-0.191l-1.101,0.693L32.518,22.01z M35.033,21.693l0.85,0.882
			l0.487,0.032l0.205-0.188l0.692,0.438l-0.283-0.598l-1.291-0.627L35.033,21.693z M36.576,14.552h-0.221l-0.031,1.132l-0.566,1.197
			l-0.724,0.534l-0.031,0.472l1.321-0.786l0.063-0.819l0.438-0.407l-0.345-0.281l0.188-0.663L36.576,14.552z M39.977,25.974
			l0.094,0.879l-0.975,0.914l0.629,0.063l0.563-0.852l0.44-0.596l-0.283-0.031L39.977,25.974z M18.939,12.732v0.917l0.637-0.279
			l0.18-0.28l-0.689-1.326l-0.407,0.283l0.025,0.354l-0.383,0.462l-0.026,0.482h0.46L18.939,12.732z M24.695,23.527l-0.025,1.021
			l0.41,0.178l0.406-1.223l-0.104-0.512L24.695,23.527z M38.844,12.85l0.031,0.725l-0.818,1.008l-0.031-1.134l1.068-1.291
			l-0.658,0.097l-0.852,0.691l-1.04-0.062l-0.785,0.756l0.565,0.408l-0.659,1.825L35.1,15.97l-0.348,0.503l0.156,0.661L34.5,17.352
			l-0.127-0.597l-0.348-0.474l-0.472,0.501l0.377,1.069l-0.533,0.978l-1.166,0.062l-0.25,0.41l0.533,0.786l-0.565,0.473l-0.58-0.603
			l-0.021,0.568l0.506,0.568l0.221,1.006l0.631,0.224l0.852,0.346l-1.574-0.282l-0.662-0.629l-0.596-0.852l0.814,0.41l-0.377-0.689
			l-0.077-0.941l-0.36,0.091l-0.44-0.942l-1.229,0.851v0.539l-0.441,0.438l-0.563-1.416l-0.628-0.756l-1.512-0.283l-0.439-0.375
			l-0.222,0.125l0.313,0.756l0.502-0.252l0.662,0.503l-1.949,1.164l-1.01-1.982l-0.211,0.037l1.029,2.354l1.007-0.473l-0.313,1.103
			l-1.008,0.91l0.156,1.354l-0.566,0.439l-1.035,1.951l-1.04,0.189l-0.912-2.203l0.222-1.006l-0.567-1.765l-1.92,0.125l-1.072-1.038
			l0.19-1.699l1.039-1.259l2.013-0.346l0.127,0.533l0.819,0.534l0.313-0.439l1.25,0.32l0.323-0.195l0.143-0.47l-0.863-0.145
			l-0.279-0.482l-0.203-0.104l-0.178,0.611l-0.385-0.485l0.025-0.406l-0.514-0.407l-0.305-0.153l0.026,0.408l0.638,0.433
			l-0.332,0.384l-0.457-0.612l-0.331-0.384l-0.765,0.384l-0.535,0.841l-0.815-0.127l-0.051-1.019l1.043,0.073l-0.329-0.532
			l-0.205-0.436l0.79-0.256l0.433-0.584l0.357-0.027l-0.077-0.33l0.229-0.307l0.179,0.509l0.993,0.025l0.279-0.715l0.385,0.129
			l-0.129-0.483l0.592-0.189l-0.184-0.218l-0.536,0.15l-0.188-0.457l-0.023-0.003l0.016-0.032l-0.078-0.192l0.215-0.153l0.188-0.479
			l-0.199-0.03l-0.332,0.408l-0.279,0.609l0.309,0.33l-0.309,0.816l-0.459,0.179l-0.253-0.814l-0.536,0.306l-0.254-0.152l0.024-0.79
			l0.46-0.354l0.383-0.943l0.969-0.533l2.418,0.444c2.789-0.293,7.85-0.83,7.85-0.83l8.35,1.179l0.314,0.881l-1.135,0.631
			L38.844,12.85z M24.52,16.04l-1.324-0.688l-0.407,0.713l0.178,0.329l0.767-0.126l0.561,0.153L24.52,16.04z M25.918,16.904
			l-0.124-0.789l-0.257-0.382l0.309-0.128v-0.381l-0.791,0.433l0.278,0.714l-0.125,0.483L25.918,16.904z M14.509,10.715L13.8,10.52
			l-0.877,0.937l1.127,2.935l0.533,0.132l0.042-0.954l0.361-0.222l0.021-0.362l0.372-0.699l-0.26-0.527L14.509,10.715z"/>
	</g>
</g>
<g>
</g>
<g>
</g>
<g>
</g>
<g>
</g>
<g>
</g>
<g>
</g>
<g>
</g>
<g>
</g>
<g>
</g>
<g>
</g>
<g>
</g>
<g>
</g>
<g>
</g>
<g>
</g>
<g>
</g>
</svg>
